<svg width="885" height="43" viewBox="0 0 885 43" fill="none" xmlns="http://www.w3.org/2000/svg">
<path fill-rule="evenodd" clip-rule="evenodd" d="M20.9422 16.8778C20.9422 16.6049 21.1638 16.3837 21.4372 16.3837H24.4072C24.6806 16.3837 24.9022 16.6049 24.9022 16.8778V19.8425C24.9022 20.1154 24.6806 20.3367 24.4072 20.3367H21.4372C21.1638 20.3367 20.9422 20.1154 20.9422 19.8425V16.8778ZM21.9322 19.3484V17.3719H23.9122V19.3484H21.9322Z" fill="white"/>
<path fill-rule="evenodd" clip-rule="evenodd" d="M25.3972 16.8778C25.3972 16.6049 25.6188 16.3837 25.8922 16.3837H28.8622C29.1356 16.3837 29.3572 16.6049 29.3572 16.8778V19.8425C29.3572 20.1154 29.1356 20.3367 28.8622 20.3367H25.8922C25.6188 20.3367 25.3972 20.1154 25.3972 19.8425V16.8778ZM26.3872 19.3484V17.3719H28.3672V19.3484H26.3872Z" fill="white"/>
<path fill-rule="evenodd" clip-rule="evenodd" d="M21.4372 20.8308C21.1638 20.8308 20.9422 21.052 20.9422 21.3249V24.2896C20.9422 24.5625 21.1638 24.7837 21.4372 24.7837H24.4072C24.6806 24.7837 24.9022 24.5625 24.9022 24.2896V21.3249C24.9022 21.052 24.6806 20.8308 24.4072 20.8308H21.4372ZM21.9322 21.819V23.7955H23.9122V21.819H21.9322Z" fill="white"/>
<path fill-rule="evenodd" clip-rule="evenodd" d="M25.3972 21.3249C25.3972 21.052 25.6188 20.8308 25.8922 20.8308H28.8622C29.1356 20.8308 29.3572 21.052 29.3572 21.3249V24.2896C29.3572 24.5625 29.1356 24.7837 28.8622 24.7837H25.8922C25.6188 24.7837 25.3972 24.5625 25.3972 24.2896V21.3249ZM26.3872 23.7955V21.819H28.3672V23.7955H26.3872Z" fill="white"/>
<path fill-rule="evenodd" clip-rule="evenodd" d="M4.55685 24.3863C-1.09706 19.3238 -1.55191 10.6603 3.54093 5.03566C8.63377 -0.588963 17.3457 -1.04472 22.9997 4.01769L25.0222 5.82865L26.7785 4.25607C32.3641 -0.745112 40.9707 -0.294857 46.0019 5.26173C51.0331 10.8183 50.5838 19.3771 44.9983 24.3783L24.7592 42.5L24.6398 42.3681L4.55685 24.3863ZM24.7731 39.1687L43.3457 22.5391C47.9109 18.4515 48.278 11.46 44.1658 6.91837C40.0486 2.37132 33.0019 2.00267 28.4311 6.09521L26.5951 7.73919C26.7126 7.81746 26.8249 7.90683 26.9305 8.0073L35.1825 15.856C35.6728 16.3223 35.9502 16.9687 35.9502 17.6447V26.869C35.9502 28.2335 34.8421 29.3396 33.4752 29.3396H16.9712C15.6043 29.3396 14.4962 28.2335 14.4962 26.869V17.6447C14.4962 16.9687 14.7737 16.3223 15.2639 15.856L23.5159 8.0073C23.5539 7.97115 23.5928 7.93643 23.6325 7.90315L21.3471 5.85684C16.7079 1.70306 9.5558 2.07722 5.37706 6.69229C1.20324 11.3019 1.57581 18.3982 6.20946 22.5471L24.7731 39.1687ZM33.4752 17.6447V26.869H16.9712L16.9712 17.6447L25.2232 9.79596L33.4752 17.6447Z" fill="white"/>
<path d="M72.4709 39.1214H91.7524V41.8592H69.5V1.08252H72.4709V39.1214Z" fill="white"/>
<path d="M114.355 42.5C102.064 42.5 93.2092 33.4709 93.2092 21.5291C93.2092 9.52913 102.064 0.5 114.355 0.5C126.646 0.5 135.5 9.52913 135.5 21.5291C135.5 33.5291 126.646 42.5 114.355 42.5ZM114.355 39.6456C124.899 39.6456 132.53 31.8981 132.53 21.5291C132.53 11.1602 124.899 3.35437 114.355 3.35437C103.811 3.35437 96.2383 11.2184 96.2383 21.5291C96.2383 31.8398 103.811 39.6456 114.355 39.6456Z" fill="white"/>
<path d="M171.534 1.08252H174.796L158.252 41.8592H155.631L138.679 1.08252H141.941L156.912 37.432L171.534 1.08252Z" fill="white"/>
<path d="M185.335 39.0631H205.316V41.8592H182.364V1.08252H204.675V3.93689H185.335V19.3155H203.16V22.0534H185.335V39.0631Z" fill="white"/>
<path d="M241.544 1.08252H244.457V41.8592H241.544V22.1117H217.078V41.8592H214.107V1.08252H217.078V19.3155H241.544V1.08252Z" fill="white"/>
<path d="M274.663 42.5C262.372 42.5 253.517 33.4709 253.517 21.5291C253.517 9.52913 262.372 0.5 274.663 0.5C286.954 0.5 295.808 9.52913 295.808 21.5291C295.808 33.5291 286.954 42.5 274.663 42.5ZM274.663 39.6456C285.206 39.6456 292.838 31.8981 292.838 21.5291C292.838 11.1602 285.206 3.35437 274.663 3.35437C264.119 3.35437 256.546 11.2184 256.546 21.5291C256.546 31.8398 264.119 39.6456 274.663 39.6456Z" fill="white"/>
<path d="M350.981 41.8592H347.952L341.835 6.44175L326.748 40.2864H325.816L310.728 6.5L304.554 41.8592H301.524L308.631 1.08252H311.369L326.223 34.7524L341.194 1.08252H343.932L350.981 41.8592Z" fill="white"/>
<path d="M362.88 39.0631H382.86V41.8592H359.909V1.08252H382.219V3.93689H362.88V19.3155H380.705V22.0534H362.88V39.0631Z" fill="white"/>
<path d="M407.694 41.8592V1.08252H410.665V41.8592H407.694Z" fill="white"/>
<path d="M451.256 1.08252H454.11V41.8592H451.605L425.625 6.26699V41.8592H422.712V1.08252H425.392L451.256 36.5583V1.08252Z" fill="white"/>
<path d="M490.349 1.08252V3.87864H477.358V41.8592H474.388V3.87864H461.397V1.08252H490.349Z" fill="white"/>
<path d="M500.603 39.0631H520.584V41.8592H497.633V1.08252H519.943V3.93689H500.603V19.3155H518.429V22.0534H500.603V39.0631Z" fill="white"/>
<path d="M553.958 41.8592L543.822 24.733H532.346V41.8592H529.376V1.08252H544.405C551.745 1.08252 557.104 6.09223 557.104 12.966C557.104 18.966 552.968 23.5097 546.968 24.5583L557.279 41.8592H553.958ZM532.346 3.93689V21.9369H544.288C550.055 21.9369 554.075 18.1505 554.075 12.966C554.075 7.7233 550.055 3.93689 544.288 3.93689H532.346Z" fill="white"/>
<path d="M566.409 41.8592V1.08252H569.38V41.8592H566.409Z" fill="white"/>
<path d="M599.602 42.5C587.311 42.5 578.456 33.4709 578.456 21.5291C578.456 9.52913 587.311 0.5 599.602 0.5C611.893 0.5 620.748 9.52913 620.748 21.5291C620.748 33.5291 611.893 42.5 599.602 42.5ZM599.602 39.6456C610.146 39.6456 617.777 31.8981 617.777 21.5291C617.777 11.1602 610.146 3.35437 599.602 3.35437C589.058 3.35437 581.486 11.2184 581.486 21.5291C581.486 31.8398 589.058 39.6456 599.602 39.6456Z" fill="white"/>
<path d="M654.421 41.8592L644.285 24.733H632.809V41.8592H629.838V1.08252H644.867C652.207 1.08252 657.566 6.09223 657.566 12.966C657.566 18.966 653.431 23.5097 647.431 24.5583L657.741 41.8592H654.421ZM632.809 3.93689V21.9369H644.751C650.518 21.9369 654.537 18.1505 654.537 12.966C654.537 7.7233 650.518 3.93689 644.751 3.93689H632.809Z" fill="white"/>
<path d="M695.438 1.08252V1.14078C707.438 1.14078 716.118 9.70388 716.118 21.4709C716.118 33.2961 707.438 41.8592 695.438 41.8592H682.914V1.08252H695.438ZM695.38 39.1214C705.691 39.1214 713.147 31.665 713.147 21.4709C713.147 11.2767 705.691 3.87864 695.38 3.87864H685.885V39.1214H695.38Z" fill="white"/>
<path d="M728.209 39.0631H748.189V41.8592H725.238V1.08252H747.549V3.93689H728.209V19.3155H746.034V22.0534H728.209V39.0631Z" fill="white"/>
<path d="M768.457 42.3835C759.719 42.3835 753.894 37.432 753.894 29.7427H756.865C756.865 35.6845 761.525 39.4709 768.398 39.4709C774.632 39.4709 779.175 35.9757 779.175 30.733C779.175 24.7913 773.758 23.6262 767.874 22.2864C761.583 20.8884 754.709 19.3155 754.709 11.568C754.709 4.86893 760.01 0.616507 768.107 0.616507C776.03 0.616507 781.098 5.16019 781.098 12.2087H778.185C778.185 6.84952 774.049 3.47087 768.049 3.47087C761.874 3.47087 757.68 6.55825 757.68 11.4515C757.68 17.1019 763.098 18.267 768.865 19.5485C775.272 21.0631 782.204 22.6359 782.204 30.733C782.204 37.8981 776.379 42.3835 768.457 42.3835Z" fill="white"/>
<path d="M791.17 41.8592V1.08252H794.141V41.8592H791.17Z" fill="white"/>
<path d="M821.917 22.4029H843.878C843.528 34.2282 835.256 42.4417 823.722 42.4417C811.781 42.4417 803.276 33.5874 803.276 21.5291C803.276 9.47087 811.955 0.558252 823.664 0.558252C833.276 0.558252 841.431 6.61651 843.179 15.0631H840.15C838.402 8.24757 831.703 3.47087 823.722 3.47087C813.645 3.47087 806.247 11.0437 806.247 21.5291C806.247 32.1311 813.47 39.5874 823.722 39.5874C832.81 39.5874 839.567 33.7621 840.732 25.199H821.917V22.4029Z" fill="white"/>
<path d="M881.266 1.08252H884.12V41.8592H881.615L855.635 6.26699V41.8592H852.722V1.08252H855.402L881.266 36.5583V1.08252Z" fill="white"/>
</svg>
