<svg width="200" height="59" viewBox="0 0 200 59" fill="none" xmlns="http://www.w3.org/2000/svg">
<path d="M52.3225 0.278751C52.2699 0.392686 48.7029 10.5592 44.3996 22.873L36.5643 45.2656L33.7072 45.2919C31.9017 45.3007 30.8501 45.3445 30.8501 45.3971C30.8501 45.4584 33.1463 45.4847 37.3794 45.4847C41.6739 45.4847 43.9088 45.4584 43.9088 45.3971C43.9088 45.3357 42.6643 45.3095 40.3505 45.3095C37.0026 45.3095 36.7922 45.3006 36.8273 45.1517C36.8536 45.0728 37.9667 41.8914 39.2988 38.0965C40.631 34.2927 41.7177 31.1639 41.7177 31.1464C41.7177 31.1289 45.1095 31.1113 49.2549 31.1113H56.7835L57.6599 33.802C59.6318 39.8756 61.3497 45.2218 61.3497 45.2656C61.3497 45.2919 59.9736 45.3095 58.2821 45.3095C56.2926 45.3095 55.2146 45.3445 55.2146 45.3971C55.2146 45.4584 58.2821 45.4847 64.2418 45.4847C70.2015 45.4847 73.269 45.4584 73.269 45.3971C73.269 45.3445 72.4977 45.3095 71.1393 45.3095H69.0183L61.4461 23.4163C57.2743 11.383 53.751 1.20776 53.6108 0.804603L53.3479 0.0859375H52.8746C52.4714 0.0859375 52.3926 0.11223 52.3225 0.278751ZM53.1288 19.7442C55.0482 25.6775 56.6432 30.6293 56.6695 30.7345L56.7221 30.9361H49.3076C42.8921 30.9361 41.893 30.9186 41.893 30.8133C41.893 30.7433 43.6108 25.7827 45.7055 19.8055C47.8001 13.8195 49.5179 8.90274 49.5179 8.87647C49.5179 8.62229 50.0788 10.305 53.1288 19.7442Z" fill="#5F5F5F"/>
<path d="M11.3935 0.49885C8.42243 0.884478 5.69673 2.18158 3.7686 4.11848C2.37508 5.51199 1.45484 7.0808 0.990336 8.82488C0.806284 9.54354 0.762463 9.93794 0.727407 11.2788C0.639764 14.3026 1.13933 16.1956 2.59419 18.3779C3.70725 20.0519 5.13582 21.3753 7.44081 22.8564C8.48378 23.5225 11.7616 25.179 14.198 26.257C16.0122 27.0632 18.6065 28.3604 19.6319 28.9738C22.2174 30.5252 23.7861 32.2867 24.3733 34.285C24.61 35.0913 24.6976 37.1509 24.5486 38.2289C23.9702 42.278 21.4286 44.9511 17.3094 45.8538C16.2664 46.0817 13.8562 46.1605 12.5153 46.0115C6.58192 45.363 2.57666 41.5594 0.56965 34.6706C0.368072 33.987 0.17526 33.4349 0.122674 33.4349C0.017503 33.4349 -0.0263183 45.9327 0.0788529 46.0379C0.131438 46.0904 0.271666 46.0028 0.455715 45.81C0.613472 45.6347 1.4899 44.6969 2.39261 43.7153L4.04029 41.9274L4.81154 42.6899C6.49428 44.3376 8.78176 45.5208 11.2094 46.0115C14.9342 46.7565 19.1586 46.2832 22.1823 44.7758C26.801 42.4796 29.2638 37.7994 28.8343 32.1378C28.6765 30.0081 28.2997 28.597 27.4583 26.9756C25.6617 23.5138 22.5591 21.0773 16.1788 18.1238C10.8238 15.6435 9.0096 14.5917 7.50213 13.0931C5.95966 11.5681 5.42504 10.306 5.42504 8.19384C5.43381 6.41472 5.8019 5.1176 6.67833 3.81173C7.68624 2.29552 9.17616 1.35775 11.3146 0.902007C12.34 0.682899 15.0482 0.682899 16.17 0.902007C17.4058 1.1474 18.3172 1.45415 19.3427 1.96248C22.0596 3.32093 24.0666 5.71357 25.3286 9.07025C25.6091 9.79772 26.2139 12.015 26.3102 12.6549C26.3277 12.7512 26.3891 12.8389 26.4504 12.8652C26.5293 12.8915 26.5556 11.6119 26.5556 6.66887C26.5556 1.7609 26.5293 0.4375 26.4504 0.4375C26.3891 0.4375 25.5039 1.2701 24.4785 2.29552L22.6205 4.15354L21.9719 3.53128C20.4644 2.10271 18.6591 1.19122 16.3453 0.700428C15.6441 0.551435 15.1008 0.507614 13.5845 0.481322C12.5503 0.463793 11.56 0.472557 11.3935 0.49885Z" fill="#5F5F5F"/>
<path d="M131.779 0.575627C125.662 1.40823 120.543 5.35214 117.616 11.4959C115.732 15.4749 114.864 20.1812 115.153 24.9227C115.399 29.112 116.249 32.5125 117.844 35.6764C120.78 41.5309 125.574 45.0629 131.683 45.878C133.111 46.0708 135.732 46.0708 137.204 45.878C141.21 45.3609 144.637 43.6519 147.423 40.786C150.771 37.3328 152.822 32.644 153.523 26.8158C153.725 25.0805 153.725 21.3731 153.523 19.7167C152.919 14.9052 151.358 10.8911 148.79 7.49061C148.133 6.62295 146.625 5.06292 145.775 4.36178C143.19 2.2496 140.017 0.908667 136.678 0.523041C135.592 0.400342 132.831 0.426634 131.779 0.575627ZM136.941 0.873607C138.413 1.27676 139.588 1.96914 140.71 3.1085C144.031 6.48273 145.705 12.5739 145.899 22.0393C145.986 26.4477 145.653 31.1979 145.04 34.353C144.26 38.3495 143.041 41.1453 141.236 43.0997C139.649 44.8087 137.993 45.5887 135.434 45.8342C133.041 46.0533 130.631 45.4924 128.984 44.3092C127.713 43.4065 126.328 41.6887 125.557 40.041C123.769 36.2549 122.919 30.8211 122.927 23.2224C122.927 19.7343 123.024 18.0603 123.366 15.3872C123.813 11.9253 124.663 8.77896 125.767 6.52655C126.451 5.12427 127.055 4.24785 127.993 3.25749C129.281 1.91656 130.604 1.15407 132.34 0.777204C133.409 0.540569 135.925 0.593155 136.941 0.873607Z" fill="#5F5F5F"/>
<path d="M78.1768 1.05053C78.1768 1.10312 79.1588 1.14694 80.8327 1.1557L83.479 1.182V23.2241V45.2661L80.8327 45.2925C79.1588 45.3012 78.1768 45.345 78.1768 45.3976C78.1768 45.4589 83.7685 45.4852 94.3029 45.4852H110.43V38.8244C110.43 35.1083 110.395 32.1636 110.351 32.1636C110.263 32.1636 110.166 32.6807 110.166 33.2328C110.166 34.3459 109.693 37.0716 109.281 38.3248C107.888 42.5843 104.969 44.7929 100.175 45.2223C99.623 45.2661 97.1432 45.31 94.6797 45.31H90.1842V23.2241V1.13817H92.8133C94.5051 1.13817 95.4424 1.10312 95.4424 1.05053C95.4424 0.989182 92.5066 0.962891 86.8096 0.962891C81.2006 0.962891 78.1768 0.989182 78.1768 1.05053Z" fill="#5F5F5F"/>
<path d="M158.282 1.05053C158.282 1.10311 159.317 1.13817 161.218 1.13817H164.155V23.224V45.3099H161.218C159.317 45.3099 158.282 45.345 158.282 45.3976C158.282 45.4589 160.534 45.4852 164.855 45.4852C169.132 45.4852 171.428 45.4589 171.428 45.3976C171.428 45.345 170.149 45.3012 167.905 45.2925L164.373 45.2661L164.347 23.224C164.33 4.34588 164.347 1.20829 164.452 1.31346C164.523 1.38357 171.07 11.4975 179.01 23.7762C186.95 36.0549 193.488 46.09 193.549 46.0725C193.62 46.0461 193.655 40.1829 193.673 23.5922L193.69 1.13817H196.801C198.817 1.13817 199.913 1.10311 199.913 1.05053C199.913 0.989182 197.625 0.962891 193.217 0.962891C188.843 0.962891 186.494 0.989182 186.459 1.05053C186.424 1.11188 187.599 1.13817 189.913 1.13817H193.427V17.8779C193.427 27.0803 193.409 34.6176 193.392 34.6176C193.374 34.6176 188.589 27.0453 182.77 17.7902L172.182 0.962891H165.232C160.658 0.962891 158.282 0.989182 158.282 1.05053Z" fill="#5F5F5F"/>
<path d="M115.688 55.2831C114.602 55.8264 114.698 57.6494 115.846 58.0263C116.564 58.2629 117.458 57.9649 117.757 57.3865C117.958 57.0008 117.949 56.2822 117.739 55.8615C117.406 55.2129 116.389 54.9237 115.688 55.2831ZM116.775 55.9667C117.055 56.2472 117.064 57.0272 116.793 57.2988C116.599 57.4917 116.205 57.4566 116.021 57.2287C115.819 56.9834 115.811 56.291 116.004 56.0193C116.161 55.7914 116.573 55.7564 116.775 55.9667Z" fill="#5F5F5F"/>
<path d="M73.0059 56.6152V58.0174H73.4441H73.8823V56.6152V55.2129H73.4441H73.0059V56.6152Z" fill="#5F5F5F"/>
<path d="M78.9658 56.6152V58.0174H79.4039H79.8337L79.8598 57.2988L79.886 56.5714L80.3509 57.2988L80.8151 58.0174H81.2442H81.683V56.6152V55.2129H81.236H80.789L80.824 55.9141C80.8412 56.2997 80.824 56.6152 80.7972 56.6152C80.7628 56.6152 80.5345 56.2997 80.289 55.9141L79.8419 55.2129H79.4039H78.9658V56.6152Z" fill="#5F5F5F"/>
<path d="M86.5908 55.5197V55.8264H87.0289H87.4669V56.9219V58.0174H87.905H88.3349L88.361 56.9483L88.3871 55.8702L88.808 55.8439C89.211 55.8177 89.2199 55.8089 89.2199 55.5109V55.2129H87.905H86.5908V55.5197Z" fill="#5F5F5F"/>
<path d="M94.1274 56.6152V58.0174H95.311H96.4939V57.7107V57.404H95.8013C95.0745 57.404 94.9513 57.3514 95.0476 57.0534C95.0916 56.9045 95.1797 56.8781 95.67 56.8781H96.2312V56.5714V56.2734L95.6439 56.2471C95.1177 56.2208 95.0476 56.2033 95.0476 56.0455C95.0476 55.8877 95.1177 55.8615 95.7491 55.8264L96.4506 55.7826L96.4767 55.4934L96.5028 55.2129H95.32H94.1274V56.6152Z" fill="#5F5F5F"/>
<path d="M101.49 56.6064V58.0173H101.928H102.366V57.5353C102.366 57.062 102.366 57.0533 102.621 57.0533C103.024 57.0533 103.155 57.1409 103.155 57.3951C103.155 57.9385 103.225 58.0173 103.707 58.0173H104.145L104.093 57.509C104.049 57.1409 103.988 56.9657 103.848 56.8517C103.672 56.7115 103.672 56.6852 103.795 56.5888C104.137 56.3346 104.154 55.7036 103.839 55.4144C103.689 55.2829 103.479 55.2478 102.577 55.2303L101.49 55.1953V56.6064ZM103.155 56.0104C103.295 56.2733 103.12 56.4398 102.708 56.4398C102.375 56.4398 102.366 56.4311 102.366 56.1331C102.366 55.8351 102.375 55.8263 102.717 55.8263C102.971 55.8263 103.085 55.8701 103.155 56.0104Z" fill="#5F5F5F"/>
<path d="M109.088 55.2743C109.053 55.3006 109.027 55.9316 109.027 56.6765V58.0174H109.509H109.991V56.6152V55.2129H109.57C109.334 55.2129 109.115 55.2392 109.088 55.2743Z" fill="#5F5F5F"/>
<path d="M122.875 56.6064V58.0173H123.313H123.751V57.5266V57.0446L124.127 57.0708L124.496 57.0971L124.575 57.5617L124.663 58.0173H125.092H125.522L125.486 57.5178C125.451 57.1409 125.398 56.9831 125.241 56.8605L125.048 56.7027L125.25 56.5362C125.53 56.3084 125.539 55.7299 125.258 55.4582C125.075 55.2742 124.969 55.2567 123.97 55.2303L122.875 55.1953V56.6064ZM124.566 56.0191C124.715 56.247 124.487 56.4398 124.092 56.4398C123.777 56.4398 123.751 56.4223 123.751 56.1944C123.751 56.0542 123.777 55.914 123.812 55.8789C123.926 55.7649 124.478 55.8701 124.566 56.0191Z" fill="#5F5F5F"/>
</svg>
