<svg width="200" height="49" viewBox="0 0 200 49" fill="none" xmlns="http://www.w3.org/2000/svg">
<mask id="mask0_174_3110" style="mask-type:luminance" maskUnits="userSpaceOnUse" x="0" y="0" width="200" height="49">
<path d="M200 0H0V48.6435H200V0Z" fill="white"/>
</mask>
<g mask="url(#mask0_174_3110)">
<path d="M47.3193 8.05961C49.5385 8.05961 51.3374 6.26065 51.3374 4.04152C51.3374 1.82239 49.5385 0.0234375 47.3193 0.0234375C45.1002 0.0234375 43.3013 1.82239 43.3013 4.04152C43.3013 6.26065 45.1002 8.05961 47.3193 8.05961Z" fill="#5F5F5F"/>
<path d="M5.6403 37.5983V2.11803C5.6403 2.10464 5.63499 2.09181 5.62552 2.08235C5.61606 2.07289 5.60323 2.06757 5.58984 2.06757L0.074378 2.07043C0.0609972 2.07043 0.0481645 2.06512 0.0387028 2.05565C0.0292412 2.04619 0.0239258 2.03336 0.0239258 2.01998V1.1442C0.0239258 1.13082 0.0292412 1.11799 0.0387028 1.10853C0.0481645 1.09907 0.0609972 1.09375 0.074378 1.09375H17.9411C17.9545 1.09375 17.9673 1.09907 17.9768 1.10853C17.9862 1.11799 17.9916 1.13082 17.9916 1.1442V2.01903C17.9916 2.02565 17.9903 2.03221 17.9877 2.03833C17.9852 2.04445 17.9815 2.05002 17.9768 2.0547C17.9721 2.05939 17.9666 2.0631 17.9604 2.06564C17.9543 2.06818 17.9477 2.06948 17.9411 2.06948L13.211 2.06853C13.1976 2.06853 13.1848 2.07384 13.1753 2.0833C13.1659 2.09277 13.1605 2.1056 13.1605 2.11898V18.2018C13.1605 18.2151 13.1659 18.228 13.1753 18.2375C13.1848 18.247 13.1976 18.2523 13.211 18.2523H24.8902C24.9035 18.2523 24.9164 18.247 24.9259 18.2375C24.9353 18.228 24.9407 18.2151 24.9407 18.2018V2.11803C24.9407 2.10464 24.9353 2.09181 24.9259 2.08235C24.9164 2.07289 24.9035 2.06757 24.8902 2.06757L20.1839 2.07043C20.1705 2.07043 20.1576 2.06512 20.1481 2.05565C20.1387 2.04619 20.1334 2.03336 20.1334 2.01998V1.1442C20.1334 1.13082 20.1387 1.11799 20.1481 1.10853C20.1576 1.09907 20.1705 1.09375 20.1839 1.09375H38.0505C38.0639 1.09375 38.0768 1.09907 38.0863 1.10853C38.0957 1.11799 38.1011 1.13082 38.1011 1.1442V2.01998C38.1011 2.03336 38.0957 2.04619 38.0863 2.05565C38.0768 2.06512 38.0639 2.07043 38.0505 2.07043L32.5113 2.06853C32.4979 2.06853 32.4851 2.07384 32.4756 2.0833C32.4661 2.09277 32.4609 2.1056 32.4609 2.11898V37.5983C32.4609 37.6116 32.4661 37.6245 32.4756 37.634C32.4851 37.6434 32.4979 37.6488 32.5113 37.6488L38.0505 37.6468C38.0639 37.6468 38.0768 37.6521 38.0863 37.6616C38.0957 37.6711 38.1011 37.6839 38.1011 37.6973L38.1001 38.573C38.1001 38.5797 38.0988 38.5862 38.0963 38.5923C38.0937 38.5984 38.09 38.604 38.0853 38.6088C38.0807 38.6134 38.0751 38.6171 38.069 38.6197C38.0628 38.6222 38.0563 38.6235 38.0497 38.6235H20.1839C20.1705 38.6235 20.1576 38.6182 20.1481 38.6088C20.1387 38.5993 20.1334 38.5864 20.1334 38.573V37.6973C20.1334 37.6839 20.1387 37.6711 20.1481 37.6616C20.1576 37.6521 20.1705 37.6468 20.1839 37.6468L24.8902 37.6488C24.9035 37.6488 24.9164 37.6434 24.9259 37.634C24.9353 37.6245 24.9407 37.6116 24.9407 37.5983V19.2784C24.9407 19.265 24.9353 19.2522 24.9259 19.2428C24.9164 19.2333 24.9035 19.228 24.8902 19.228H13.21C13.1967 19.228 13.1838 19.2333 13.1743 19.2428C13.1649 19.2522 13.1595 19.265 13.1595 19.2784L13.1605 37.5973C13.1605 37.6107 13.1659 37.6235 13.1753 37.633C13.1848 37.6424 13.1976 37.6478 13.211 37.6478H17.9411C17.9545 37.6478 17.9673 37.6531 17.9768 37.6626C17.9862 37.672 17.9916 37.6848 17.9916 37.6982V38.573C17.9916 38.5864 17.9862 38.5993 17.9768 38.6088C17.9673 38.6182 17.9545 38.6235 17.9411 38.6235H0.074378C0.0609972 38.6235 0.0481645 38.6182 0.0387028 38.6088C0.0292412 38.5993 0.0239258 38.5864 0.0239258 38.573V37.6973C0.0239258 37.6839 0.0292412 37.6711 0.0387028 37.6616C0.0481645 37.6521 0.0609972 37.6468 0.074378 37.6468L5.58984 37.6488C5.60323 37.6488 5.61606 37.6434 5.62552 37.634C5.63499 37.6245 5.6403 37.6116 5.6403 37.5983Z" fill="#5F5F5F"/>
<path d="M80.0314 16.2313C80.0314 16.2338 80.0328 16.2362 80.0341 16.2381C80.0362 16.24 80.0383 16.2413 80.041 16.2417C80.0431 16.2423 80.0458 16.242 80.0486 16.241C80.0506 16.24 80.0527 16.2382 80.0541 16.236C81.5606 12.7682 85.0637 11.3746 88.6321 12.316C93.2231 13.5279 94.2836 18.2523 94.285 22.3522C94.2884 27.4393 94.2891 32.5248 94.2884 37.6088C94.2884 37.6196 94.2926 37.63 94.3001 37.6377C94.3077 37.6454 94.318 37.6497 94.329 37.6497L98.7297 37.6468C98.7455 37.6468 98.7599 37.6529 98.7709 37.6638C98.7819 37.6747 98.7881 37.6895 98.7881 37.7049V38.5778C98.7881 38.6083 98.773 38.6235 98.742 38.6235H84.5785C84.5661 38.6235 84.5537 38.6185 84.5448 38.6096C84.5359 38.6006 84.531 38.5885 84.531 38.5759V37.6954C84.531 37.6828 84.5359 37.6706 84.5448 37.6617C84.5537 37.6528 84.5661 37.6478 84.5785 37.6478H87.4809C87.5125 37.6478 87.5283 37.6319 87.5283 37.6002C87.5304 30.5159 87.5317 23.432 87.5324 16.3484C87.5324 14.9586 87.1228 13.3489 85.4589 13.2337C81.8939 12.9862 80.3936 17.2527 80.1063 20.0466C80.0609 20.482 80.0383 21.1154 80.0369 21.9467C80.03 27.1664 80.0293 32.3865 80.0362 37.6068C80.0362 37.6354 80.0499 37.6497 80.0788 37.6497L82.9716 37.6468C83.0115 37.6468 83.0314 37.6668 83.0314 37.7068V38.5635C83.0314 38.6035 83.0121 38.6235 82.9723 38.6235H68.8149C68.7771 38.6235 68.7579 38.6045 68.7572 38.5664L68.751 37.7325C68.751 37.7213 68.753 37.7102 68.7572 37.6999C68.7613 37.6895 68.7675 37.6802 68.7757 37.6723C68.7833 37.6644 68.7929 37.6582 68.8032 37.654C68.8135 37.6497 68.8245 37.6477 68.8355 37.6478L73.2383 37.6488C73.2623 37.6488 73.274 37.6367 73.274 37.6125V2.09804C73.274 2.0897 73.2713 2.08172 73.2651 2.07583C73.2596 2.06993 73.2513 2.06662 73.2431 2.06662L68.8486 2.07043C68.8362 2.07055 68.8238 2.06819 68.8121 2.06346C68.8005 2.05873 68.7902 2.05174 68.7812 2.04289C68.7723 2.03404 68.7647 2.0235 68.7599 2.01189C68.7551 2.00027 68.7524 1.98782 68.7524 1.97523V1.18895C68.7524 1.1637 68.7627 1.13949 68.7805 1.12163C68.7984 1.10378 68.8225 1.09375 68.8479 1.09375H79.962C79.9805 1.09375 79.9991 1.10128 80.0128 1.11466C80.0266 1.12805 80.0341 1.14621 80.0341 1.16515L80.0314 16.2313Z" fill="#5F5F5F"/>
<path d="M113.518 12.054C120.792 11.7865 126.319 17.4847 127.125 24.449C127.632 28.8327 125.736 33.4124 122.535 36.4014C119.991 38.7764 116.648 39.9035 113.18 39.6723C109.115 39.4 105.627 37.183 103.407 33.8131C100.793 29.8464 100.195 25.0554 101.979 20.6223C103.916 15.8093 108.211 12.2491 113.518 12.054ZM109.701 35.5133C110.663 37.9197 112.799 39.2725 115.408 38.5566C118.923 37.5923 119.498 32.1054 119.635 29.201C119.756 26.5978 119.725 23.9965 119.541 21.3971C119.304 18.052 118.28 12.5766 113.605 13.0287C109.19 13.4552 108.635 19.5485 108.507 22.806C108.426 24.8482 108.427 26.8907 108.508 28.9336C108.594 31.0963 108.874 33.4485 109.701 35.5133Z" fill="#5F5F5F"/>
<path d="M140.658 16.202C142.168 12.4571 146.453 11.1396 150.062 12.6475C152.212 13.5449 153.633 15.1638 154.328 17.5042C154.329 17.5067 154.331 17.5089 154.333 17.5103C154.335 17.5118 154.338 17.5126 154.341 17.5126C154.343 17.5126 154.346 17.5118 154.348 17.5103C154.35 17.5089 154.352 17.5067 154.353 17.5042C155.535 13.5604 158.84 11.3681 162.993 12.2163C167.711 13.1796 169.11 17.7041 169.117 21.9421C169.126 27.1638 169.132 32.3857 169.139 37.608C169.139 37.6366 169.152 37.6508 169.18 37.6508L173.584 37.648C173.596 37.648 173.609 37.6531 173.618 37.6622C173.627 37.6713 173.631 37.6836 173.631 37.6965V38.577C173.631 38.5897 173.627 38.6018 173.618 38.6107C173.609 38.6196 173.596 38.6247 173.584 38.6247H159.424C159.392 38.6247 159.376 38.6088 159.376 38.577V37.7441C159.376 37.68 159.408 37.648 159.471 37.648L162.33 37.6508C162.359 37.6508 162.374 37.6359 162.374 37.6061C162.375 30.6151 162.375 23.6248 162.374 16.6351C162.374 14.6951 161.877 12.9388 159.486 13.2577C156.388 13.6708 155.192 17.6556 154.942 20.2372C154.904 20.6364 154.884 21.2704 154.883 22.1392C154.877 27.2808 154.876 32.4295 154.88 37.5851C154.88 37.6289 154.902 37.6505 154.945 37.6499L157.814 37.648C157.822 37.648 157.831 37.6496 157.838 37.6528C157.846 37.6559 157.853 37.6605 157.859 37.6664C157.864 37.6722 157.869 37.6792 157.872 37.6867C157.875 37.6944 157.877 37.7025 157.877 37.7108V38.5533C157.877 38.6009 157.853 38.6247 157.805 38.6247H145.145C145.132 38.6247 145.12 38.6196 145.111 38.6107C145.102 38.6018 145.097 38.5897 145.097 38.577V37.7431C145.097 37.7306 145.1 37.7181 145.105 37.7065C145.11 37.6949 145.117 37.6844 145.126 37.6755C145.135 37.6667 145.145 37.6596 145.157 37.655C145.168 37.6502 145.181 37.6478 145.194 37.648L148.079 37.6518C148.084 37.6518 148.09 37.6507 148.095 37.6486C148.099 37.6466 148.104 37.6436 148.108 37.6398C148.112 37.636 148.115 37.6315 148.117 37.6265C148.119 37.6216 148.12 37.6162 148.12 37.6108C148.12 30.6853 148.119 23.7568 148.119 16.8255C148.118 15.3777 147.987 13.4538 146.114 13.2434C142.926 12.8836 141.288 16.4847 140.853 19.0092C140.666 20.0897 140.603 21.0092 140.601 22.2039C140.598 27.3227 140.598 32.4469 140.601 37.5765C140.601 37.5957 140.608 37.6141 140.622 37.6278C140.636 37.6413 140.653 37.6489 140.673 37.6489H143.563C143.603 37.6489 143.622 37.6689 143.622 37.7089V38.5533C143.622 38.6009 143.598 38.6247 143.55 38.6247H129.391C129.378 38.6247 129.366 38.6196 129.357 38.6107C129.348 38.6018 129.343 38.5897 129.343 38.577V37.708C129.343 37.668 129.363 37.648 129.403 37.648L133.826 37.6508C133.831 37.6508 133.836 37.6498 133.84 37.6478C133.845 37.6458 133.849 37.6428 133.853 37.6391C133.857 37.6354 133.86 37.631 133.862 37.6262C133.864 37.6213 133.864 37.6161 133.864 37.6108V14.1363C133.864 14.1174 133.857 14.0992 133.844 14.0858C133.83 14.0724 133.812 14.0649 133.793 14.0649H129.391C129.359 14.0649 129.343 14.0491 129.343 14.0173V13.1844C129.343 13.1368 129.367 13.113 129.414 13.113H140.528C140.576 13.113 140.6 13.1368 140.6 13.1844L140.601 16.1906C140.601 16.1974 140.603 16.2039 140.608 16.2091C140.612 16.2142 140.618 16.2177 140.625 16.2191C140.631 16.2204 140.639 16.2194 140.644 16.2163C140.651 16.2133 140.655 16.2082 140.658 16.202Z" fill="#5F5F5F"/>
<path d="M183.303 25.6958C183.296 27.6853 183.385 29.6901 183.676 31.6587C183.966 33.6101 184.67 35.8766 186.155 37.2369C187.674 38.6286 190.078 38.8971 191.988 38.3954C195.343 37.5139 197.728 34.5449 198.309 31.1865C198.316 31.1471 198.339 31.1275 198.379 31.1275H199.315C199.351 31.1275 199.366 31.1455 199.36 31.1817C198.551 35.6587 195.249 38.9361 190.709 39.572C182.587 40.7086 176.084 34.2602 175.801 26.3193C175.674 22.7543 177.021 19.1979 179.3 16.4954C181.961 13.3378 185.923 11.7243 190.035 12.0927C196.988 12.7153 200.176 19.3245 199.909 25.5835C199.909 25.6024 199.901 25.6203 199.887 25.6334C199.874 25.6466 199.855 25.6539 199.836 25.6538H183.345C183.317 25.6538 183.303 25.6679 183.303 25.6958ZM188.616 13.0589C185.07 12.4516 183.84 17.1275 183.542 19.6396C183.345 21.3029 183.282 22.971 183.351 24.6439C183.351 24.6595 183.358 24.6743 183.37 24.6851C183.381 24.6959 183.396 24.702 183.412 24.702H192.458C192.471 24.702 192.484 24.6968 192.494 24.6876C192.503 24.6783 192.509 24.6657 192.509 24.6525C192.628 21.7814 192.663 13.751 188.616 13.0589Z" fill="#5F5F5F"/>
<path d="M43.9552 37.6131V14.1014C43.9552 14.0918 43.9514 14.0826 43.9447 14.0758C43.9379 14.069 43.9286 14.0652 43.9191 14.0652H39.4697C39.4602 14.0652 39.451 14.0614 39.4442 14.0546C39.4374 14.0479 39.4336 14.0386 39.4336 14.029V13.1494C39.4336 13.1399 39.4374 13.1307 39.4442 13.1239C39.451 13.1171 39.4602 13.1133 39.4697 13.1133H50.6539C50.6636 13.1133 50.6728 13.1171 50.6795 13.1239C50.6863 13.1307 50.6901 13.1399 50.6901 13.1494V37.6149C50.6901 37.6246 50.6939 37.6338 50.7007 37.6405C50.7075 37.6473 50.7167 37.6511 50.7263 37.6511L55.1518 37.6483C55.1614 37.6483 55.1706 37.652 55.1774 37.6588C55.1842 37.6656 55.188 37.6749 55.188 37.6844V38.5887C55.188 38.5984 55.1842 38.6076 55.1774 38.6144C55.1706 38.6211 55.1614 38.625 55.1518 38.625H39.4697C39.4602 38.625 39.451 38.6211 39.4442 38.6144C39.4374 38.6076 39.4336 38.5984 39.4336 38.5887V37.6854C39.4336 37.6758 39.4374 37.6666 39.4442 37.6598C39.451 37.653 39.4602 37.6492 39.4697 37.6492H43.9191C43.9286 37.6492 43.9379 37.6454 43.9447 37.6386C43.9514 37.6318 43.9552 37.6226 43.9552 37.6131Z" fill="#5F5F5F"/>
<path d="M76.6261 47.6603C75.3677 47.1748 75.3945 45.8878 75.4474 44.7693C75.5512 42.5827 78.4825 42.1248 78.9471 44.3838C78.9485 44.3924 78.9485 44.4014 78.9464 44.41C78.9443 44.4186 78.9402 44.4266 78.9347 44.4335C78.9292 44.4403 78.9223 44.4458 78.9141 44.4495C78.9065 44.4532 78.8976 44.4552 78.8887 44.4551H78.5856C78.5595 44.4551 78.5423 44.4425 78.5347 44.417C78.3588 43.8031 78.2426 43.4157 77.5402 43.2881C76.5684 43.1119 75.9601 43.7545 75.8591 44.6521C75.7485 45.6355 75.7326 47.2205 77.0364 47.4051C77.8316 47.5175 78.4502 47.0996 78.5237 46.2714C78.5265 46.2346 78.5471 46.2162 78.5842 46.2162H78.8626C78.9045 46.2162 78.923 46.2372 78.9196 46.279C78.8103 47.4375 77.6543 48.0572 76.6261 47.6603Z" fill="#5F5F5F"/>
<path d="M13.9983 45.2391C13.4005 45.0354 13.0368 44.3947 13.2091 43.8407C13.6537 42.4157 16.4647 42.7232 16.3466 44.2691C16.3447 44.2983 16.3288 44.3135 16.299 44.3148L16.023 44.3224C16.0085 44.3227 15.9944 44.3175 15.9836 44.3077C15.9728 44.298 15.9661 44.2846 15.9649 44.2701C15.8678 43.0982 14.0601 42.8841 13.6337 43.8293C13.2928 44.5842 14.1467 44.9373 14.7798 45.1182C15.4671 45.3143 16.3409 45.5856 16.3933 46.4471C16.4999 48.212 13.0987 48.2186 13.0216 46.409C13.0203 46.3792 13.0345 46.364 13.0644 46.3633L13.3595 46.3509C13.3673 46.3506 13.375 46.3517 13.3823 46.3543C13.3896 46.357 13.3963 46.361 13.4021 46.3662C13.4078 46.3714 13.4125 46.3778 13.4158 46.3848C13.4191 46.3918 13.421 46.3994 13.4214 46.4071C13.4985 47.9712 16.6618 47.6532 15.8678 46.0797C15.6755 45.698 14.4075 45.3771 13.9983 45.2391Z" fill="#5F5F5F"/>
<path d="M20.9491 43.281C19.9753 43.102 19.3212 43.7712 19.2384 44.7003C19.1071 46.1663 19.365 47.7551 21.3232 47.3591C21.5275 47.3178 21.7236 47.2144 21.9115 47.0487C21.9201 47.041 21.9271 47.0314 21.9319 47.0208C21.9366 47.0101 21.9391 46.9985 21.939 46.9868L21.9476 45.8493C21.9476 45.8329 21.9411 45.8171 21.9295 45.8055C21.9179 45.794 21.9021 45.7874 21.8858 45.7874H20.7405C20.7006 45.7874 20.6806 45.7674 20.6806 45.7274V45.5019C20.6806 45.4701 20.6965 45.4542 20.7282 45.4542H22.297C22.3092 45.4542 22.3209 45.4591 22.3296 45.4676C22.3383 45.4761 22.3434 45.4877 22.3436 45.5C22.35 46.0305 22.3513 46.5547 22.3474 47.0725C22.3468 47.1658 22.2789 47.2562 22.1437 47.3438C21.2356 47.9369 19.841 47.9731 19.1889 46.9707C18.792 46.3615 18.81 45.7388 18.8177 44.9069C18.8263 43.9712 19.3517 43.0878 20.3179 42.9479C21.2689 42.8098 22.177 43.2191 22.336 44.2463C22.343 44.2907 22.3239 44.3129 22.2789 44.3129L22.0028 44.3101C21.9667 44.3101 21.9451 44.2923 21.9381 44.2567C21.8296 43.7078 21.4999 43.3826 20.9491 43.281Z" fill="#5F5F5F"/>
<path d="M54.9027 46.0974C54.6666 48.2003 51.747 48.3526 51.3377 46.286C51.154 45.3559 51.1626 43.9585 52.0002 43.2912C52.8399 42.6239 54.143 42.8628 54.6571 43.8442C55.0045 44.5058 54.9731 45.4739 54.9027 46.0974ZM51.9964 46.8371C52.757 47.8671 54.241 47.4606 54.4733 46.2403C54.5848 45.6548 54.6038 44.84 54.42 44.2412C54.064 43.0789 52.5609 42.9275 51.9431 43.9157C51.5338 44.5706 51.529 46.2031 51.9964 46.8371Z" fill="#5F5F5F"/>
<path d="M62.7338 44.2828C62.6557 43.1243 60.8451 42.8863 60.4111 43.7707C60.0846 44.4371 60.7071 44.8749 61.2574 45.0206C61.9427 45.2024 62.9328 45.469 63.1212 46.2448C63.581 48.1353 59.8923 48.3419 59.7828 46.4065C59.7824 46.4004 59.7834 46.3941 59.7855 46.3882C59.7877 46.3824 59.7911 46.377 59.7955 46.3725C59.7998 46.3679 59.8051 46.3643 59.8109 46.3618C59.8168 46.3593 59.8231 46.358 59.8295 46.358H60.1113C60.1436 46.358 60.162 46.3739 60.1664 46.4057C60.3054 47.3509 61.2745 47.5718 62.0646 47.3538C62.7291 47.1709 62.9917 46.4694 62.512 45.9344C62.2426 45.6336 61.1831 45.3918 60.7519 45.2205C59.8152 44.8463 59.5791 43.6793 60.5348 43.1577C61.4915 42.636 63.0137 42.9415 63.1241 44.2448C63.1273 44.2803 63.1111 44.2999 63.0755 44.3038L62.7937 44.3323C62.7563 44.3368 62.7363 44.3203 62.7338 44.2828Z" fill="#5F5F5F"/>
<path d="M97.2824 46.2847C96.9373 48.3818 94.0734 48.2038 93.8102 46.12C93.637 44.7502 93.859 42.6988 95.8143 42.9301C96.681 43.0322 97.1669 43.5219 97.2707 44.3989C97.2755 44.4364 97.259 44.455 97.2212 44.455H96.9518C96.9387 44.4551 96.9263 44.4507 96.916 44.4425C96.9064 44.4344 96.8995 44.423 96.8968 44.4103C96.7208 43.5854 96.2329 43.2093 95.4329 43.2823C94.1586 43.3984 94.0933 44.873 94.182 45.8239C94.2645 46.715 94.6549 47.4727 95.6679 47.4203C96.3648 47.3842 96.8157 46.9805 96.8597 46.2742C96.8604 46.2588 96.8672 46.2443 96.8782 46.2336C96.8899 46.223 96.905 46.217 96.9201 46.2171H97.2253C97.2336 46.2171 97.2418 46.219 97.2494 46.2225C97.2569 46.2261 97.2638 46.2313 97.2693 46.2377C97.2748 46.2441 97.2789 46.2516 97.281 46.2598C97.283 46.2679 97.2837 46.2764 97.2824 46.2847Z" fill="#5F5F5F"/>
<path d="M135.699 47.6622C134.342 47.1615 134.286 45.5556 134.521 44.4104C134.927 42.4313 137.642 42.3923 138.05 44.4313C138.139 44.8759 138.105 45.3795 138.095 45.8335C138.066 47.0844 136.986 48.1353 135.699 47.6622ZM135.439 43.5318C134.519 44.2619 134.499 47.27 136.08 47.4042C137.81 47.5508 137.862 45.6023 137.647 44.4561C137.457 43.4404 136.289 42.8587 135.439 43.5318Z" fill="#5F5F5F"/>
<path d="M140.117 47.6469C138.908 47.1499 138.929 45.9505 138.961 44.8586C139.027 42.5587 142.039 42.1247 142.465 44.3827C142.467 44.3914 142.467 44.4003 142.464 44.4089C142.462 44.4175 142.458 44.4255 142.453 44.4323C142.447 44.4392 142.44 44.4446 142.432 44.4484C142.424 44.4521 142.415 44.4541 142.406 44.4541H142.099C142.062 44.4541 142.042 44.4357 142.04 44.3989C141.99 43.7563 141.595 43.3527 140.959 43.266C140.027 43.1385 139.476 43.8324 139.37 44.6987C139.317 45.1357 139.329 45.9772 139.466 46.4264C139.88 47.7896 141.93 47.801 142.038 46.277C142.04 46.2453 142.058 46.2288 142.089 46.2275L142.389 46.2123C142.429 46.2097 142.447 46.2284 142.443 46.2684C142.341 47.4431 141.149 48.0714 140.117 47.6469Z" fill="#5F5F5F"/>
<path d="M5.23584 43.043C5.23584 43.0244 5.24326 43.0065 5.25647 42.9933C5.26968 42.9801 5.2876 42.9727 5.30628 42.9727H6.56853C6.8313 42.9727 7.09152 43.0245 7.33427 43.1254C7.57702 43.2262 7.79764 43.374 7.98341 43.5604C8.16926 43.7467 8.31661 43.9679 8.41716 44.2114C8.51771 44.4549 8.56946 44.7158 8.56946 44.9793V45.6875C8.56946 46.2197 8.35867 46.7301 7.98341 47.1065C7.60816 47.4828 7.09922 47.6942 6.56853 47.6942H5.30628C5.2876 47.6942 5.26968 47.6867 5.25647 47.6735C5.24326 47.6604 5.23584 47.6424 5.23584 47.6237V43.043ZM5.62232 43.3858L5.64326 47.281C5.64326 47.3035 5.65219 47.3251 5.66807 47.341C5.68396 47.3568 5.70552 47.3658 5.72798 47.3658L6.51523 47.361C6.73576 47.3599 6.95393 47.3149 7.15723 47.2283C7.36053 47.1419 7.54499 47.0157 7.70011 46.8571C7.8553 46.6984 7.97798 46.5103 8.06135 46.3036C8.14472 46.0969 8.18699 45.8756 8.18589 45.6523L8.18204 44.9878C8.17977 44.537 8.00066 44.1054 7.68417 43.7882C7.36761 43.471 6.93963 43.294 6.49429 43.2963L5.70704 43.301C5.68457 43.301 5.66302 43.31 5.64713 43.3259C5.63125 43.3417 5.62232 43.3633 5.62232 43.3858Z" fill="#5F5F5F"/>
<path d="M10.0056 47.3593H12.4349C12.4425 47.3593 12.45 47.3608 12.4571 47.3638C12.4641 47.3667 12.4705 47.3709 12.476 47.3763C12.4813 47.3817 12.4856 47.3881 12.4885 47.3952C12.4915 47.4022 12.4929 47.4097 12.4929 47.4174V47.6344C12.4929 47.642 12.4915 47.6496 12.4885 47.6566C12.4856 47.6637 12.4813 47.6701 12.476 47.6755C12.4705 47.6809 12.4641 47.6851 12.4571 47.6881C12.45 47.691 12.4425 47.6925 12.4349 47.6925H9.60098C9.58558 47.6925 9.5708 47.6864 9.55994 47.6755C9.54909 47.6646 9.54297 47.6498 9.54297 47.6344V43.0385C9.54297 43.0231 9.54909 43.0084 9.55994 42.9974C9.5708 42.9866 9.58558 42.9805 9.60098 42.9805H12.412C12.4197 42.9805 12.4272 42.982 12.4342 42.9849C12.4413 42.9878 12.4477 42.9921 12.4531 42.9974C12.4585 43.0029 12.4628 43.0093 12.4657 43.0163C12.4686 43.0234 12.4701 43.0309 12.4701 43.0385V43.2556C12.4701 43.2632 12.4686 43.2707 12.4657 43.2778C12.4628 43.2848 12.4585 43.2913 12.4531 43.2966C12.4477 43.302 12.4413 43.3063 12.4342 43.3092C12.4272 43.3122 12.4197 43.3136 12.412 43.3136H10.0056C9.99019 43.3136 9.97541 43.3197 9.96448 43.3306C9.95362 43.3415 9.9475 43.3563 9.9475 43.3717V45.0404C9.9475 45.0558 9.95362 45.0706 9.96448 45.0815C9.97541 45.0924 9.99019 45.0985 10.0056 45.0985H12.1027C12.1181 45.0985 12.1329 45.1046 12.1437 45.1155C12.1547 45.1264 12.1608 45.1412 12.1608 45.1566V45.3736C12.1608 45.389 12.1547 45.4038 12.1437 45.4147C12.1329 45.4256 12.1181 45.4317 12.1027 45.4317H10.0056C9.99019 45.4317 9.97541 45.4378 9.96448 45.4486C9.95362 45.4596 9.9475 45.4744 9.9475 45.4897V47.3012C9.9475 47.3167 9.95362 47.3314 9.96448 47.3423C9.97541 47.3532 9.99019 47.3593 10.0056 47.3593Z" fill="#5F5F5F"/>
<path d="M17.7004 42.9824H17.3824C17.3635 42.9824 17.3481 42.9978 17.3481 43.0167V47.6545C17.3481 47.6734 17.3635 47.6887 17.3824 47.6887H17.7004C17.7193 47.6887 17.7346 47.6734 17.7346 47.6545V43.0167C17.7346 42.9978 17.7193 42.9824 17.7004 42.9824Z" fill="#5F5F5F"/>
<path d="M23.8431 43.741L23.847 47.6325C23.847 47.6725 23.827 47.6925 23.787 47.6925H23.489C23.4573 47.6925 23.4414 47.6766 23.4414 47.6449V43.0395C23.4414 43.0001 23.4614 42.9805 23.5014 42.9805H23.7775C23.8174 42.9805 23.8488 42.9972 23.8717 43.0309L26.5019 46.9462C26.5055 46.9518 26.511 46.9561 26.5172 46.9583C26.5235 46.9605 26.5304 46.9607 26.5369 46.9586C26.5434 46.9566 26.5491 46.9526 26.5532 46.9471C26.5574 46.9416 26.5598 46.935 26.56 46.9281L26.558 43.028C26.558 42.9963 26.5742 42.9805 26.6066 42.9805H26.8922C26.9233 42.9805 26.9388 42.9963 26.9388 43.028L26.9407 47.6411C26.9407 47.6754 26.9239 47.6925 26.8903 47.6925H26.6057C26.5657 47.6925 26.5345 47.676 26.5123 47.643L23.8831 43.7286C23.8805 43.7248 23.8767 43.7219 23.8723 43.7203C23.8679 43.7188 23.8631 43.7187 23.8586 43.7201C23.8541 43.7215 23.8502 43.7242 23.8474 43.728C23.8446 43.7318 23.8431 43.7363 23.8431 43.741Z" fill="#5F5F5F"/>
<path d="M31.8093 42.9805H31.5181C31.4865 42.9805 31.4609 43.006 31.4609 43.0376V47.6354C31.4609 47.6669 31.4865 47.6925 31.5181 47.6925H31.8093C31.8409 47.6925 31.8664 47.6669 31.8664 47.6354V43.0376C31.8664 43.006 31.8409 42.9805 31.8093 42.9805Z" fill="#5F5F5F"/>
<path d="M36.1543 46.9548C36.1632 46.9548 36.1718 46.9548 36.18 46.9548C36.185 46.9548 36.1899 46.9528 36.1935 46.9492C36.197 46.9456 36.199 46.9407 36.199 46.9357L36.1962 43.029C36.1962 42.9966 36.2124 42.9805 36.2447 42.9805H36.5189C36.5582 42.9805 36.5779 43.0005 36.5779 43.0404L36.5788 47.6249C36.5788 47.6554 36.5639 47.6744 36.5341 47.682C36.3351 47.7344 36.2019 47.7182 36.0791 47.5363C35.2243 46.2646 34.372 44.9948 33.5222 43.7268C33.5194 43.7228 33.5153 43.7198 33.5107 43.7183C33.5061 43.7167 33.5011 43.7166 33.4965 43.718C33.492 43.7194 33.488 43.7222 33.4852 43.726C33.4825 43.7298 33.4811 43.7344 33.4813 43.7392L33.4851 47.6325C33.4851 47.6725 33.4651 47.6925 33.4251 47.6925H33.1538C33.1043 47.6925 33.0796 47.6678 33.0796 47.6183V43.028C33.0796 42.9963 33.0954 42.9805 33.1271 42.9805H33.4375C33.4641 42.9805 33.4847 42.9913 33.4994 43.0128L36.141 46.9471C36.1441 46.9522 36.1486 46.9548 36.1543 46.9548Z" fill="#5F5F5F"/>
<path d="M37.3633 43.2556V43.0385C37.3633 43.0231 37.3694 43.0084 37.3803 42.9974C37.3912 42.9866 37.406 42.9805 37.4214 42.9805H40.9349C40.9426 42.9805 40.9502 42.982 40.9574 42.9849C40.9644 42.988 40.9709 42.9923 40.9763 42.9978C40.9817 43.0033 40.986 43.0098 40.9888 43.017C40.9917 43.0241 40.9931 43.0317 40.993 43.0395L40.9873 43.2565C40.987 43.2717 40.9808 43.2862 40.9699 43.297C40.9591 43.3076 40.9444 43.3137 40.9292 43.3136H39.4194C39.404 43.3136 39.3893 43.3197 39.3784 43.3306C39.3675 43.3415 39.3614 43.3563 39.3614 43.3717L39.3633 47.6344C39.3633 47.6498 39.3572 47.6646 39.3462 47.6755C39.3354 47.6864 39.3206 47.6925 39.3052 47.6925H39.0387C39.0233 47.6925 39.0085 47.6864 38.9976 47.6755C38.9867 47.6646 38.9806 47.6498 38.9806 47.6344L38.9825 43.3717C38.9825 43.3563 38.9764 43.3415 38.9655 43.3306C38.9546 43.3197 38.9398 43.3136 38.9244 43.3136H37.4214C37.406 43.3136 37.3912 43.3075 37.3803 43.2966C37.3694 43.2858 37.3633 43.271 37.3633 43.2556Z" fill="#5F5F5F"/>
<path d="M42.217 47.3593H44.6701C44.6762 47.3593 44.6823 47.3605 44.688 47.3629C44.6936 47.3652 44.6988 47.3686 44.7031 47.373C44.7074 47.3773 44.7109 47.3825 44.7132 47.3881C44.7155 47.3938 44.7168 47.3999 44.7168 47.406V47.6458C44.7168 47.6519 44.7155 47.6581 44.7132 47.6637C44.7109 47.6693 44.7074 47.6745 44.7031 47.6788C44.6988 47.6831 44.6936 47.6866 44.688 47.6889C44.6823 47.6913 44.6762 47.6925 44.6701 47.6925H41.8362C41.8238 47.6925 41.812 47.6875 41.8032 47.6788C41.7945 47.6701 41.7896 47.6582 41.7896 47.6458V43.0271C41.7896 43.0147 41.7945 43.0029 41.8032 42.9941C41.812 42.9853 41.8238 42.9805 41.8362 42.9805H44.6615C44.668 42.9804 44.6746 42.9818 44.6805 42.9844C44.6865 42.9871 44.6919 42.9909 44.6963 42.9957C44.7007 43.0006 44.7041 43.0063 44.7061 43.0126C44.7081 43.0188 44.7089 43.0253 44.7082 43.0319L44.6844 43.2717C44.6832 43.2831 44.6779 43.2937 44.6695 43.3014C44.6611 43.3091 44.6501 43.3135 44.6387 43.3136H42.217C42.2109 43.3136 42.2048 43.3148 42.1991 43.3172C42.1935 43.3195 42.1883 43.3229 42.184 43.3273C42.1797 43.3316 42.1762 43.3368 42.1739 43.3424C42.1715 43.3481 42.1703 43.3541 42.1703 43.3603V45.0537C42.1703 45.0599 42.1715 45.066 42.1739 45.0716C42.1762 45.0772 42.1797 45.0824 42.184 45.0867C42.1883 45.0911 42.1935 45.0945 42.1991 45.0968C42.2048 45.0992 42.2109 45.1004 42.217 45.1004L44.3369 45.0975C44.3493 45.0975 44.3612 45.1025 44.3699 45.1112C44.3786 45.1199 44.3836 45.1318 44.3836 45.1442V45.385C44.3836 45.3974 44.3786 45.4093 44.3699 45.418C44.3612 45.4267 44.3493 45.4317 44.3369 45.4317H42.217C42.2109 45.4317 42.2048 45.4328 42.1991 45.4352C42.1935 45.4376 42.1883 45.441 42.184 45.4453C42.1797 45.4497 42.1762 45.4548 42.1739 45.4605C42.1715 45.4661 42.1703 45.4722 42.1703 45.4783V47.3127C42.1703 47.3188 42.1715 47.3249 42.1739 47.3305C42.1762 47.3362 42.1797 47.3414 42.184 47.3457C42.1883 47.35 42.1935 47.3535 42.1991 47.3558C42.2048 47.3581 42.2109 47.3593 42.217 47.3593Z" fill="#5F5F5F"/>
<path d="M45.9515 45.7871L45.9563 47.631C45.9563 47.671 45.936 47.691 45.8954 47.691H45.5974C45.5657 47.691 45.5498 47.6751 45.5498 47.6433V43.0275C45.5498 43.0148 45.5548 43.0027 45.5638 42.9938C45.5727 42.9849 45.5848 42.9799 45.5974 42.9799C46.2961 42.977 47.2509 42.8932 47.8287 43.1026C49.0015 43.5291 48.9615 45.2083 47.7773 45.6195C47.7684 45.6226 47.7603 45.6277 47.7536 45.6343C47.7468 45.6408 47.7417 45.6488 47.7384 45.6576C47.7351 45.6665 47.7339 45.6759 47.7346 45.6853C47.7354 45.6947 47.7383 45.7037 47.7431 45.7119L48.8692 47.6291C48.8933 47.6703 48.8816 47.691 48.8339 47.691H48.5189C48.4776 47.691 48.4468 47.6732 48.4265 47.6376L47.3547 45.7966C47.3436 45.7778 47.3277 45.7621 47.3085 45.7512C47.2893 45.7404 47.2675 45.7347 47.2452 45.7347L45.9963 45.7414C45.9664 45.742 45.9515 45.7573 45.9515 45.7871ZM45.9525 43.3587V45.3463C45.9525 45.3584 45.9573 45.3701 45.9659 45.3787C45.9744 45.3872 45.986 45.3921 45.9982 45.3921H47.2099C47.4955 45.3921 47.7693 45.2846 47.9712 45.0932C48.1732 44.9018 48.2866 44.6422 48.2866 44.3716V44.3335C48.2866 44.0628 48.1732 43.8033 47.9712 43.6119C47.7693 43.4206 47.4955 43.313 47.2099 43.313H45.9982C45.9921 43.313 45.9862 43.3143 45.9807 43.3165C45.9752 43.3188 45.9701 43.3222 45.9659 43.3264C45.9616 43.3307 45.9583 43.3357 45.9559 43.3413C45.9537 43.3468 45.9525 43.3527 45.9525 43.3587Z" fill="#5F5F5F"/>
<path d="M50.1059 42.9805H49.8241C49.7905 42.9805 49.7632 43.0078 49.7632 43.0414V47.6316C49.7632 47.6652 49.7905 47.6925 49.8241 47.6925H50.1059C50.1395 47.6925 50.1668 47.6652 50.1668 47.6316V43.0414C50.1668 43.0078 50.1395 42.9805 50.1059 42.9805Z" fill="#5F5F5F"/>
<path d="M57.645 45.7438L56.3779 45.7352C56.3462 45.7352 56.3303 45.7511 56.3303 45.7829V47.6334C56.3303 47.6727 56.3107 47.6924 56.2713 47.6924H55.9971C55.9496 47.6924 55.9258 47.6686 55.9258 47.621V43.0289C55.9258 43.0169 55.9305 43.0055 55.9388 42.9969C55.9472 42.9884 55.9586 42.9835 55.9705 42.9833C56.5182 42.975 57.0731 42.9775 57.6354 42.9908C59.2432 43.0299 59.6221 45.0099 58.1456 45.6363C58.1385 45.6394 58.132 45.644 58.1267 45.6498C58.1215 45.6556 58.1175 45.6624 58.1151 45.6698C58.1127 45.6772 58.1118 45.685 58.1127 45.6926C58.1135 45.7003 58.116 45.7077 58.1199 45.7143L59.248 47.6286C59.2727 47.6712 59.2604 47.6924 59.2109 47.6924H58.8967C58.8782 47.6924 58.8599 47.6875 58.8437 47.6781C58.8275 47.6688 58.814 47.6554 58.8044 47.6391L57.7335 45.7952C57.7138 45.7609 57.6843 45.7438 57.645 45.7438ZM56.3303 43.3707L56.3265 45.345C56.3265 45.3601 56.3325 45.3747 56.3432 45.3853C56.354 45.3961 56.3685 45.4021 56.3836 45.4021L57.5498 45.404C57.6957 45.4042 57.8401 45.3787 57.9751 45.3286C58.11 45.2786 58.2326 45.2051 58.3359 45.1123C58.4393 45.0196 58.5212 44.9095 58.5773 44.7881C58.6333 44.6669 58.6623 44.5368 58.6626 44.4054V44.3178C58.663 44.0525 58.5464 43.7979 58.3384 43.6099C58.1305 43.4219 57.8481 43.316 57.5535 43.3154L56.3874 43.3136C56.3799 43.3136 56.3725 43.315 56.3656 43.3179C56.3586 43.3208 56.3524 43.325 56.3471 43.3303C56.3417 43.3356 56.3375 43.3419 56.3346 43.3488C56.3318 43.3558 56.3303 43.3632 56.3303 43.3707Z" fill="#5F5F5F"/>
<path d="M69.75 46.3818H67.7098C67.6705 46.3818 67.6442 46.4002 67.6309 46.437L67.1844 47.6412C67.1723 47.6741 67.1489 47.6907 67.1139 47.6907H66.8198C66.7735 47.6907 66.7586 47.6688 66.7751 47.625L68.4857 43.1091C68.5039 43.0604 68.5365 43.0184 68.5792 42.9889C68.6219 42.9592 68.6726 42.9434 68.7246 42.9434C68.7768 42.9434 68.827 42.9592 68.8703 42.9889C68.9129 43.0184 68.9452 43.0604 68.9638 43.1091L70.6744 47.626C70.6902 47.6691 70.6751 47.6907 70.6298 47.6907H70.3432C70.3246 47.6906 70.3067 47.685 70.2923 47.6746C70.2772 47.6643 70.2662 47.6495 70.26 47.6326L69.8167 46.4284C69.8112 46.4147 69.8023 46.4029 69.7906 46.3945C69.7782 46.3862 69.7645 46.3817 69.75 46.3818ZM67.7955 45.9829C67.7939 45.9876 67.7933 45.9927 67.794 45.9977C67.7947 46.0027 67.7966 46.0074 67.7995 46.0115C67.8023 46.0156 67.8062 46.019 67.8107 46.0212C67.815 46.0236 67.82 46.0248 67.825 46.0248H69.6201C69.6256 46.0248 69.6304 46.0236 69.6346 46.0212C69.6394 46.019 69.6428 46.0156 69.6463 46.0115C69.649 46.0074 69.6504 46.0027 69.6511 45.9977C69.6518 45.9927 69.6517 45.9876 69.6497 45.9829L68.7521 43.5432C68.75 43.5371 68.7459 43.5319 68.7404 43.5282C68.7356 43.5245 68.7294 43.5225 68.7227 43.5225C68.7163 43.5225 68.71 43.5245 68.7047 43.5282C68.6994 43.5319 68.6954 43.5371 68.6932 43.5432L67.7955 45.9829Z" fill="#5F5F5F"/>
<path d="M71.8467 45.7854V47.6312C71.8467 47.6712 71.8268 47.6911 71.7869 47.6911H71.4893C71.4577 47.6911 71.4419 47.6753 71.4419 47.6436V43.0277C71.4419 43.0148 71.4474 43.0025 71.4563 42.9933C71.4653 42.9842 71.4769 42.9791 71.4893 42.9791C72.556 42.9781 74.69 42.6783 74.5732 44.428C74.534 45.0095 74.2178 45.4294 73.6735 45.6198C73.6646 45.6229 73.657 45.6279 73.6501 45.6344C73.6433 45.6409 73.6385 45.6488 73.635 45.6574C73.6323 45.6661 73.6309 45.6753 73.6316 45.6844C73.6323 45.6935 73.6357 45.7023 73.6398 45.7102L74.7766 47.6436C74.7952 47.6753 74.7855 47.6911 74.7491 47.6911H74.4185C74.378 47.6911 74.3477 47.6737 74.3271 47.6388L73.244 45.7835C73.2282 45.7556 73.2041 45.7416 73.1718 45.7416L71.8962 45.7359C71.8632 45.7352 71.8467 45.7517 71.8467 45.7854ZM71.8446 43.3761L71.8488 45.339C71.8488 45.3548 71.855 45.3701 71.866 45.3814C71.8776 45.3926 71.8928 45.3989 71.9086 45.3989L73.0921 45.397C73.3807 45.3965 73.657 45.291 73.8611 45.1037C74.0653 44.9164 74.1794 44.6627 74.1787 44.3984V44.3089C74.1787 44.1781 74.1505 44.0485 74.0955 43.9277C74.0405 43.8068 73.9601 43.6971 73.8584 43.6047C73.7574 43.5124 73.6371 43.4392 73.5051 43.3893C73.3725 43.3394 73.2309 43.3139 73.0879 43.3142L71.9044 43.3161C71.8886 43.3161 71.8735 43.3224 71.8625 43.3337C71.8508 43.3449 71.8446 43.3602 71.8446 43.3761Z" fill="#5F5F5F"/>
<path d="M80.3141 45.4792L80.3209 47.6449C80.3209 47.6575 80.3161 47.6696 80.3072 47.6785C80.2983 47.6875 80.2859 47.6925 80.2735 47.6925H79.9622C79.9491 47.6925 79.9374 47.6875 79.9285 47.6785C79.9196 47.6696 79.9141 47.6575 79.9141 47.6449V43.028C79.9141 43.0155 79.9196 43.0034 79.9285 42.9944C79.9374 42.9855 79.9491 42.9805 79.9622 42.9805H80.2721C80.2852 42.9805 80.2969 42.9855 80.3058 42.9944C80.3147 43.0034 80.3196 43.0155 80.3196 43.028L80.3168 45.0509C80.3168 45.0635 80.3223 45.0757 80.3312 45.0845C80.3402 45.0935 80.3519 45.0985 80.3649 45.0985H82.9608C82.9732 45.0985 82.9855 45.0935 82.9945 45.0845C83.0034 45.0757 83.0082 45.0635 83.0082 45.0509V43.028C83.0082 43.0155 83.013 43.0034 83.022 42.9944C83.0309 42.9855 83.0433 42.9805 83.0556 42.9805H83.3649C83.378 42.9805 83.3897 42.9855 83.3986 42.9944C83.4075 43.0034 83.4123 43.0155 83.4123 43.028V47.6449C83.4123 47.6575 83.4075 47.6696 83.3986 47.6785C83.3897 47.6875 83.378 47.6925 83.3649 47.6925H83.0556C83.0433 47.6925 83.0309 47.6875 83.022 47.6785C83.013 47.6696 83.0082 47.6575 83.0082 47.6449V45.4792C83.0082 45.4667 83.0034 45.4546 82.9945 45.4456C82.9855 45.4367 82.9732 45.4317 82.9608 45.4317H80.3615C80.3491 45.4317 80.3367 45.4367 80.3278 45.4456C80.3189 45.4546 80.3141 45.4667 80.3141 45.4792Z" fill="#5F5F5F"/>
<path d="M84.9515 42.9805H84.6601C84.6285 42.9805 84.603 43.006 84.603 43.0376V47.6354C84.603 47.6669 84.6285 47.6925 84.6601 47.6925H84.9515C84.9831 47.6925 85.0085 47.6669 85.0085 47.6354V43.0376C85.0085 43.006 84.9831 42.9805 84.9515 42.9805Z" fill="#5F5F5F"/>
<path d="M85.8398 43.2537V43.0404C85.8398 43.0245 85.8467 43.0093 85.8577 42.998C85.8687 42.9868 85.8845 42.9805 85.9003 42.9805H89.4206C89.4364 42.9805 89.4515 42.9868 89.4625 42.998C89.4742 43.0093 89.4804 43.0245 89.4804 43.0404V43.2537C89.4804 43.2695 89.4742 43.2848 89.4625 43.2961C89.4515 43.3073 89.4364 43.3136 89.4206 43.3136H87.923C87.9072 43.3136 87.8921 43.3199 87.8804 43.3312C87.8694 43.3425 87.8632 43.3577 87.8632 43.3736V47.6325C87.8632 47.6484 87.857 47.6637 87.8453 47.6749C87.8343 47.6862 87.8192 47.6925 87.8027 47.6925H87.5182C87.5024 47.6925 87.4873 47.6862 87.4763 47.6749C87.4646 47.6637 87.4584 47.6484 87.4584 47.6325V43.3736C87.4584 43.3577 87.4522 43.3425 87.4405 43.3312C87.4295 43.3199 87.4144 43.3136 87.3986 43.3136H85.9003C85.8845 43.3136 85.8687 43.3073 85.8577 43.2961C85.8467 43.2848 85.8398 43.2695 85.8398 43.2537Z" fill="#5F5F5F"/>
<path d="M90.6679 45.4669L90.6727 47.3241C90.6727 47.3335 90.6768 47.3424 90.683 47.349C90.6899 47.3556 90.6988 47.3593 90.7077 47.3593H93.1586C93.1675 47.3593 93.1765 47.363 93.1834 47.3696C93.1895 47.3763 93.1937 47.3852 93.1937 47.3946V47.6573C93.1937 47.6666 93.1895 47.6756 93.1834 47.6822C93.1765 47.6888 93.1675 47.6925 93.1586 47.6925H90.3009C90.2913 47.6925 90.2823 47.6888 90.2754 47.6822C90.2693 47.6756 90.2651 47.6666 90.2651 47.6573L90.2672 43.0157C90.2672 43.0063 90.2713 42.9974 90.2775 42.9908C90.2844 42.9842 90.2933 42.9805 90.3023 42.9805H93.127C93.1359 42.9804 93.1442 42.9836 93.1504 42.9894C93.1572 42.9952 93.1614 43.0032 93.162 43.0119L93.1909 43.2746C93.1909 43.2794 93.1909 43.2844 93.1895 43.2891C93.1875 43.2937 93.1854 43.298 93.182 43.3016C93.1792 43.3053 93.1751 43.3083 93.1703 43.3104C93.1662 43.3124 93.1614 43.3135 93.1565 43.3136H90.7016C90.6919 43.3136 90.683 43.3173 90.6768 43.324C90.6699 43.3306 90.6665 43.3395 90.6665 43.3489L90.67 45.0633C90.67 45.0726 90.6734 45.0816 90.6803 45.0882C90.6871 45.0948 90.6961 45.0985 90.705 45.0985H92.8253C92.8342 45.0985 92.8431 45.1022 92.85 45.1088C92.8569 45.1154 92.8603 45.1244 92.8603 45.1337V45.3964C92.8603 45.4058 92.8569 45.4148 92.85 45.4214C92.8431 45.428 92.8342 45.4317 92.8253 45.4317H90.7036C90.694 45.4317 90.6851 45.4354 90.6782 45.442C90.672 45.4486 90.6679 45.4575 90.6679 45.4669Z" fill="#5F5F5F"/>
<path d="M97.7388 43.2556V43.0385C97.7388 43.0231 97.745 43.0084 97.7559 42.9974C97.7669 42.9866 97.7821 42.9805 97.7972 42.9805H101.293C101.306 42.9805 101.32 42.9858 101.331 42.995C101.341 43.0042 101.348 43.017 101.35 43.0309L101.379 43.248C101.38 43.2561 101.38 43.2644 101.377 43.2723C101.375 43.2802 101.371 43.2875 101.366 43.2937C101.36 43.2999 101.353 43.3049 101.346 43.3083C101.339 43.3117 101.331 43.3136 101.322 43.3136H99.7972C99.7821 43.3136 99.7669 43.3197 99.7559 43.3306C99.745 43.3415 99.7388 43.3563 99.7388 43.3717V47.6344C99.7388 47.6498 99.7333 47.6646 99.7223 47.6755C99.7113 47.6864 99.6962 47.6925 99.681 47.6925H99.4157C99.3999 47.6925 99.3855 47.6864 99.3745 47.6755C99.3635 47.6646 99.3573 47.6498 99.3573 47.6344V43.3717C99.3573 43.3563 99.3511 43.3415 99.3401 43.3306C99.3291 43.3197 99.3147 43.3136 99.2996 43.3136H97.7972C97.7821 43.3136 97.7669 43.3075 97.7559 43.2966C97.745 43.2858 97.7388 43.271 97.7388 43.2556Z" fill="#5F5F5F"/>
<path d="M104.707 47.0918C104.934 46.8704 105.048 46.5607 105.048 46.1627C105.051 45.1226 105.048 44.0805 105.041 43.0366C105.041 42.9992 105.059 42.9805 105.097 42.9805H105.384C105.426 42.9805 105.448 43.002 105.448 43.0452C105.452 44.0713 105.452 45.0963 105.448 46.1199C105.444 47.2384 104.626 47.8724 103.549 47.7515C102.415 47.623 102.124 46.9186 102.12 45.8734C102.116 44.9322 102.116 43.9904 102.119 43.048C102.12 43.03 102.127 43.0128 102.14 43.0002C102.153 42.9875 102.17 42.9805 102.188 42.9805H102.45C102.466 42.9805 102.481 42.9867 102.492 42.9977C102.503 43.0088 102.509 43.0238 102.509 43.0395C102.507 44.0053 102.512 44.97 102.523 45.9333C102.527 46.368 102.578 46.6749 102.676 46.8539C103.052 47.5402 104.18 47.604 104.707 47.0918Z" fill="#5F5F5F"/>
<path d="M108.269 45.7382L106.999 45.7363C106.966 45.7363 106.949 45.7528 106.949 45.7857V47.6315C106.949 47.6715 106.929 47.6915 106.889 47.6915H106.616C106.568 47.6915 106.544 47.6677 106.544 47.6201V43.028C106.544 43.0158 106.549 43.0041 106.558 42.9954C106.566 42.9866 106.578 42.9816 106.59 42.9813C107.283 42.9738 108.263 42.8976 108.825 43.0985C109.998 43.5173 109.945 45.2079 108.771 45.623C108.762 45.626 108.754 45.631 108.748 45.6374C108.741 45.6438 108.736 45.6516 108.733 45.6601C108.73 45.6686 108.729 45.6778 108.73 45.6869C108.731 45.6959 108.733 45.7047 108.738 45.7125L109.864 47.6297C109.889 47.6709 109.877 47.6915 109.829 47.6915H109.513C109.472 47.6915 109.441 47.6737 109.421 47.6382L108.344 45.782C108.327 45.7528 108.302 45.7382 108.269 45.7382ZM106.941 43.3469L106.954 45.3764C106.954 45.3796 106.955 45.3826 106.956 45.3855C106.957 45.3883 106.96 45.3908 106.962 45.393C106.964 45.3951 106.966 45.3967 106.97 45.3978C106.973 45.3989 106.976 45.3994 106.979 45.3993L108.215 45.3907C108.499 45.3886 108.772 45.2807 108.972 45.0908C109.172 44.9008 109.283 44.6444 109.281 44.3778V44.3112C109.281 44.1792 109.252 44.0486 109.197 43.927C109.142 43.8054 109.062 43.6951 108.962 43.6024C108.861 43.5098 108.742 43.4366 108.611 43.3871C108.481 43.3375 108.34 43.3126 108.199 43.3136L106.964 43.3222C106.96 43.3223 106.957 43.323 106.955 43.3243C106.952 43.3256 106.949 43.3275 106.947 43.3298C106.945 43.3321 106.943 43.3348 106.942 43.3377C106.941 43.3407 106.94 43.3438 106.941 43.3469Z" fill="#5F5F5F"/>
<path d="M111.179 45.0985H113.285C113.296 45.0985 113.307 45.1029 113.315 45.1108C113.322 45.1186 113.327 45.1293 113.327 45.1404V45.3898C113.327 45.4009 113.322 45.4115 113.315 45.4194C113.307 45.4273 113.296 45.4317 113.285 45.4317H111.177C111.166 45.4317 111.156 45.4361 111.148 45.4439C111.14 45.4518 111.135 45.4625 111.135 45.4735L111.139 47.3174C111.139 47.3286 111.143 47.3392 111.151 47.3471C111.159 47.3549 111.169 47.3593 111.181 47.3593H113.619C113.63 47.3593 113.64 47.3638 113.648 47.3716C113.656 47.3794 113.66 47.3901 113.66 47.4012V47.6506C113.66 47.6617 113.656 47.6724 113.648 47.6803C113.64 47.6881 113.63 47.6925 113.619 47.6925H110.774C110.763 47.6925 110.753 47.6881 110.744 47.6803C110.737 47.6724 110.732 47.6617 110.732 47.6506L110.734 43.0223C110.734 43.0113 110.738 43.0006 110.746 42.9927C110.754 42.9849 110.765 42.9805 110.776 42.9805H113.597C113.608 42.9807 113.618 42.9848 113.625 42.992C113.633 42.9992 113.638 43.0091 113.638 43.0195L113.654 43.2689C113.654 43.2746 113.653 43.2804 113.652 43.2858C113.649 43.2912 113.646 43.2961 113.643 43.3004C113.638 43.3046 113.634 43.3079 113.628 43.3102C113.623 43.3125 113.617 43.3137 113.612 43.3136H111.175C111.164 43.3136 111.153 43.3181 111.145 43.3259C111.137 43.3337 111.133 43.3444 111.133 43.3555L111.137 45.0566C111.137 45.0677 111.141 45.0783 111.149 45.0862C111.157 45.0941 111.168 45.0985 111.179 45.0985Z" fill="#5F5F5F"/>
<path d="M121.219 42.9805H120.999C120.968 42.9805 120.942 43.006 120.942 43.0376V48.5169C120.942 48.5484 120.968 48.574 120.999 48.574H121.219C121.25 48.574 121.276 48.5484 121.276 48.5169V43.0376C121.276 43.006 121.25 42.9805 121.219 42.9805Z" fill="#5F5F5F"/>
<path d="M129.26 43.6925L129.305 47.6373C129.305 47.6519 129.3 47.666 129.29 47.6763C129.279 47.6867 129.265 47.6925 129.25 47.6925H128.939C128.907 47.6925 128.892 47.6766 128.892 47.6449V43.028C128.892 42.9963 128.907 42.9805 128.939 42.9805H129.354C129.396 42.9805 129.425 42.9998 129.441 43.0385L131.123 47.0709C131.125 47.077 131.129 47.0822 131.136 47.0858C131.141 47.0895 131.147 47.0915 131.154 47.0915C131.161 47.0915 131.167 47.0895 131.173 47.0858C131.178 47.0822 131.183 47.077 131.186 47.0709L132.879 43.0357C132.885 43.0193 132.897 43.0053 132.912 42.9955C132.927 42.9856 132.944 42.9804 132.962 42.9805H133.365C133.413 42.9805 133.437 43.0042 133.437 43.0519V47.6325C133.437 47.6725 133.417 47.6925 133.377 47.6925H133.087C133.07 47.6925 133.053 47.6857 133.041 47.6735C133.03 47.6614 133.023 47.6449 133.023 47.6278L133.06 43.6896C133.06 43.6827 133.058 43.6759 133.054 43.6697C133.052 43.6636 133.047 43.6583 133.041 43.6543C133.036 43.6503 133.029 43.6478 133.022 43.6467C133.015 43.6458 133.008 43.6464 133.002 43.6487C132.967 43.6614 132.954 43.6915 132.963 43.7392C132.966 43.7584 132.964 43.7782 132.956 43.7963L131.354 47.5935C131.338 47.6326 131.31 47.666 131.274 47.6895C131.239 47.713 131.198 47.7256 131.156 47.7256C131.113 47.7256 131.072 47.713 131.037 47.6895C131.001 47.666 130.973 47.6326 130.957 47.5935L129.309 43.682C129.307 43.6764 129.303 43.6718 129.298 43.669C129.292 43.6662 129.286 43.6653 129.28 43.6666C129.274 43.6678 129.269 43.6711 129.265 43.6758C129.261 43.6805 129.259 43.6864 129.26 43.6925Z" fill="#5F5F5F"/>
<path d="M143.806 45.5116L143.816 47.6601C143.816 47.6687 143.813 47.677 143.807 47.683C143.801 47.6891 143.792 47.6925 143.784 47.6925H143.441C143.432 47.6925 143.423 47.6891 143.417 47.683C143.412 47.677 143.408 47.6687 143.408 47.6601V43.0128C143.408 43.0042 143.412 42.996 143.417 42.99C143.423 42.9838 143.432 42.9805 143.441 42.9805H143.78C143.789 42.9805 143.797 42.9838 143.803 42.99C143.809 42.996 143.812 43.0042 143.812 43.0128V45.1137C143.812 45.1223 143.816 45.1306 143.822 45.1366C143.828 45.1427 143.836 45.1461 143.845 45.1461H144.412C144.416 45.1461 144.421 45.1451 144.425 45.1431C144.43 45.1412 144.433 45.1383 144.436 45.1347L146.247 42.9919C146.251 42.9883 146.254 42.9854 146.258 42.9834C146.263 42.9814 146.267 42.9805 146.272 42.9805H146.687C146.693 42.9805 146.7 42.9822 146.705 42.9855C146.71 42.9889 146.714 42.9936 146.717 42.9992C146.72 43.0048 146.72 43.0111 146.72 43.0172C146.719 43.0233 146.716 43.0291 146.712 43.0337L144.837 45.2784C144.832 45.2842 144.829 45.2917 144.829 45.2994C144.829 45.307 144.832 45.3144 144.837 45.3203L146.847 47.6392C146.852 47.6438 146.854 47.6495 146.855 47.6556C146.856 47.6616 146.855 47.6678 146.852 47.6733C146.849 47.6789 146.846 47.6837 146.841 47.6871C146.836 47.6904 146.83 47.6924 146.823 47.6925H146.414C146.41 47.6924 146.405 47.6913 146.401 47.6893C146.397 47.6873 146.393 47.6845 146.39 47.6811L144.457 45.4907C144.454 45.4872 144.45 45.4844 144.446 45.4825C144.443 45.4805 144.438 45.4794 144.433 45.4792H143.838C143.83 45.4792 143.821 45.4827 143.815 45.4887C143.81 45.4948 143.806 45.503 143.806 45.5116Z" fill="#5F5F5F"/>
<path d="M149.964 45.272C150.545 45.4766 150.828 45.9507 150.752 46.5666C150.58 47.965 148.901 47.7127 147.726 47.6813C147.687 47.6801 147.667 47.6601 147.667 47.6214V43.0264C147.667 43.014 147.673 43.0021 147.681 42.9934C147.69 42.9847 147.702 42.9797 147.714 42.9797C148.361 42.9769 149.36 42.8655 149.953 43.1406C150.811 43.5386 150.848 44.7608 149.96 45.1977C149.903 45.2256 149.904 45.2504 149.964 45.272ZM148.061 43.3929V45.0169C148.061 45.0378 148.07 45.0579 148.084 45.0727C148.099 45.0876 148.119 45.0959 148.14 45.0959H149.25C149.373 45.0959 149.496 45.0756 149.61 45.0361C149.725 44.9966 149.828 44.9388 149.916 44.8659C150.003 44.7929 150.072 44.7064 150.12 44.6111C150.167 44.5158 150.191 44.4137 150.191 44.3105V44.0993C150.191 43.9961 150.167 43.894 150.12 43.7987C150.072 43.7034 150.003 43.6168 149.916 43.5439C149.828 43.471 149.725 43.4131 149.61 43.3737C149.496 43.3342 149.373 43.3139 149.25 43.3139H148.14C148.119 43.3139 148.099 43.3222 148.084 43.3371C148.07 43.3518 148.061 43.372 148.061 43.3929ZM148.067 45.4986L148.061 47.2825C148.061 47.3023 148.069 47.3212 148.083 47.3353C148.096 47.3494 148.116 47.3574 148.136 47.3577L149.368 47.3624C149.5 47.363 149.632 47.3388 149.755 47.2916C149.877 47.2442 149.989 47.1746 150.083 47.0866C150.177 46.9986 150.252 46.894 150.303 46.7788C150.354 46.6637 150.38 46.5401 150.381 46.4153V46.381C150.382 46.1292 150.276 45.8874 150.087 45.7088C149.899 45.5301 149.643 45.4292 149.375 45.4281L148.143 45.4234C148.133 45.4232 148.123 45.4251 148.114 45.4288C148.105 45.4325 148.096 45.438 148.089 45.445C148.082 45.452 148.076 45.4604 148.072 45.4696C148.069 45.4788 148.067 45.4886 148.067 45.4986Z" fill="#5F5F5F"/>
<path d="M154.242 46.3795L152.188 46.3852C152.173 46.3853 152.159 46.3898 152.146 46.3983C152.135 46.4068 152.125 46.4189 152.12 46.4328L151.678 47.6351C151.664 47.6732 151.637 47.6922 151.596 47.6922H151.31C151.303 47.6923 151.295 47.6904 151.287 47.6867C151.28 47.6829 151.274 47.6775 151.269 47.6708C151.265 47.6642 151.262 47.6565 151.261 47.6484C151.26 47.6403 151.261 47.6322 151.264 47.6246L152.978 43.1001C152.996 43.0523 153.028 43.0112 153.07 42.9821C153.112 42.9531 153.161 42.9375 153.213 42.9375C153.264 42.9375 153.314 42.9531 153.356 42.9821C153.398 43.0112 153.43 43.0523 153.448 43.1001L155.16 47.6256C155.176 47.67 155.161 47.6922 155.114 47.6922H154.833C154.792 47.6922 154.763 47.6722 154.747 47.6323L154.299 46.4195C154.29 46.3928 154.27 46.3795 154.242 46.3795ZM152.286 45.9873C152.284 45.9919 152.283 45.9969 152.284 46.0017C152.284 46.0066 152.286 46.0112 152.289 46.0152C152.292 46.0192 152.295 46.0225 152.3 46.0248C152.304 46.0271 152.309 46.0282 152.314 46.0282L154.113 46.0254C154.117 46.0254 154.122 46.0242 154.126 46.0219C154.13 46.0196 154.135 46.0164 154.137 46.0123C154.14 46.0084 154.142 46.0037 154.142 45.9989C154.143 45.994 154.143 45.989 154.141 45.9844L153.238 43.5475C153.236 43.5417 153.231 43.5367 153.226 43.5331C153.221 43.5296 153.215 43.5277 153.209 43.5277C153.203 43.5277 153.196 43.5296 153.192 43.5331C153.186 43.5367 153.183 43.5417 153.181 43.5475L152.286 45.9873Z" fill="#5F5F5F"/>
</g>
</svg>
