<svg width="200" height="96" viewBox="0 0 200 96" fill="none" xmlns="http://www.w3.org/2000/svg">
<path d="M9.80321 10.1656L7.20218 10.0723C7.16608 10.0717 7.13076 10.0617 7.09971 10.0433C7.06866 10.0249 7.04298 9.99865 7.02517 9.96724C7.00737 9.93583 6.99808 9.90032 6.99824 9.86421C6.99838 9.82811 7.00796 9.79267 7.02601 9.76141L7.17109 9.5127C7.24709 9.38835 7.36108 9.32617 7.51306 9.32617H28.0209C28.1188 9.32617 28.2158 9.34574 28.3064 9.38376C28.3968 9.42177 28.4791 9.4775 28.5484 9.54774C28.6177 9.61799 28.6727 9.70137 28.7101 9.79316C28.7476 9.88494 28.767 9.9833 28.767 10.0826L28.6945 23.0464C28.6985 23.1289 28.6697 23.2096 28.6144 23.2707C28.5589 23.332 28.4815 23.3687 28.3991 23.3728C28.3166 23.3769 28.2359 23.3481 28.1747 23.2927C28.1135 23.2374 28.0767 23.16 28.0727 23.0775C27.368 16.3314 25.9069 9.20182 17.1815 10.1863C16.7808 10.2346 16.5805 10.4591 16.5805 10.8599V34.2485C16.5787 34.6314 16.6961 35.0054 16.9165 35.3185C17.1369 35.6317 17.4494 35.8686 17.8105 35.9961C18.1716 36.1237 18.5634 36.1357 18.9317 36.0305C19.2998 35.9253 19.6262 35.7081 19.8654 35.4091C21.4751 33.4194 22.4422 30.4108 22.767 26.3832C22.771 26.2815 22.8154 26.1856 22.8902 26.1166C22.965 26.0476 23.0642 26.0111 23.166 26.0153C23.2676 26.0194 23.3635 26.0638 23.4325 26.1386C23.5015 26.2134 23.5379 26.3126 23.5338 26.4143V46.093C23.5338 46.4316 23.368 46.5663 23.0364 46.4972C22.5735 46.4005 22.3801 46.0964 22.4561 45.5852C23.1331 40.998 21.4025 37.9894 17.2644 36.5593C17.1867 36.5331 17.104 36.5257 17.0229 36.5377C16.9418 36.5496 16.8647 36.5806 16.798 36.6281C16.7312 36.6757 16.6767 36.7384 16.6389 36.811C16.6011 36.8838 16.581 36.9644 16.5805 37.0464V62.7355C16.5805 63.1362 16.7808 63.371 17.1815 63.4402C25.6064 64.7873 28.3732 57.1189 28.5287 50.2381C28.5288 50.1437 28.5576 50.0515 28.6111 49.9737C28.6648 49.896 28.7409 49.8364 28.8292 49.8029C28.9259 49.7683 29.0225 49.7373 29.1193 49.7096C29.1361 49.703 29.1544 49.7009 29.1723 49.7034C29.1903 49.706 29.2076 49.7131 29.2227 49.7242C29.238 49.7353 29.2505 49.7501 29.2595 49.7674C29.2687 49.7847 29.2738 49.804 29.2748 49.8236V63.7303C29.2748 64.2485 29.0157 64.5075 28.4976 64.5075H7.27472C7.17601 64.4977 7.08412 64.4527 7.0157 64.3809C6.9473 64.3091 6.90691 64.2151 6.9019 64.116C6.89688 64.0169 6.92756 63.9193 6.98836 63.841C7.04916 63.7626 7.13606 63.7087 7.23327 63.6889L9.92757 63.378C10.119 63.3575 10.296 63.2666 10.4243 63.123C10.5526 62.9794 10.623 62.7933 10.6219 62.6008V11.0153C10.622 10.7952 10.5367 10.5837 10.3841 10.4251C10.2314 10.2667 10.0232 10.1736 9.80321 10.1656Z" fill="#5F5F5F"/>
<path d="M74.3001 63.5029C82.0618 63.8241 84.7354 57.2438 84.4245 50.5184C84.4107 50.2006 84.5799 50.0348 84.9322 50.021C85.1326 50.021 85.2328 50.1177 85.2328 50.3112V63.9899C85.2328 64.3353 85.06 64.5081 84.7146 64.5081H64.5592C64.4383 64.5136 64.3201 64.4708 64.2307 64.3891C64.1414 64.3075 64.088 64.1938 64.0825 64.0728C64.077 63.9519 64.1198 63.8338 64.2014 63.7443C64.283 63.6549 64.3968 63.6016 64.5177 63.5961L66.839 63.3889C67.0551 63.3682 67.2559 63.2674 67.4016 63.1064C67.5473 62.9453 67.6276 62.7356 67.6265 62.5184V10.9122C67.6265 10.4148 67.3778 10.1764 66.8804 10.1972L64.7664 10.2801C64.6987 10.282 64.6313 10.2695 64.569 10.2434C64.5066 10.2172 64.4508 10.1782 64.4055 10.1288C64.3601 10.0795 64.3262 10.0211 64.3062 9.95778C64.2862 9.89441 64.2806 9.82757 64.2898 9.76193C64.3105 9.62375 64.3623 9.51667 64.4452 9.44068C64.5004 9.38541 64.5972 9.35778 64.7353 9.35778C70.7734 9.28178 74.7319 9.28178 76.611 9.35778C76.8874 9.37159 77.0566 9.50286 77.1188 9.75156C77.1947 10.0693 77.067 10.2317 76.7353 10.2386L74.2587 10.2593C74.0571 10.2621 73.8647 10.3451 73.7231 10.4905C73.5815 10.636 73.5022 10.8322 73.5022 11.0366L73.782 62.964C73.782 63.3094 73.9547 63.489 74.3001 63.5029Z" fill="#5F5F5F"/>
<path d="M127.119 63.5022C135.689 63.9892 137.15 56.6006 137.679 50.0514C137.683 49.9662 137.721 49.8861 137.783 49.8288C137.847 49.7714 137.931 49.7416 138.015 49.7457C138.1 49.7498 138.181 49.7876 138.238 49.8508C138.295 49.9139 138.325 49.9973 138.321 50.0825L138 64.0411C137.993 64.3588 137.831 64.5177 137.513 64.5177L117.409 64.4763C117.32 64.469 117.237 64.4302 117.174 64.3668C117.112 64.3033 117.074 64.2196 117.067 64.1306C117.061 64.0417 117.087 63.9534 117.14 63.8818C117.194 63.8103 117.27 63.7601 117.357 63.7405L120.052 63.326C120.239 63.2964 120.41 63.2009 120.534 63.0565C120.657 62.912 120.725 62.7284 120.725 62.5385V10.9944C120.725 10.5592 120.508 10.3174 120.072 10.269L117.357 10.0099C117.178 9.99613 117.106 9.89941 117.14 9.71979C117.161 9.61616 117.212 9.52981 117.295 9.46072C117.357 9.40546 117.451 9.37437 117.575 9.36746C121.554 9.27074 125.534 9.27074 129.513 9.36746C129.588 9.37156 129.659 9.39847 129.717 9.44452C129.776 9.49059 129.819 9.55355 129.84 9.62488C129.862 9.69619 129.861 9.77241 129.837 9.84317C129.814 9.91391 129.77 9.97576 129.71 10.0203C129.254 10.3381 128.77 10.4383 128.259 10.3208C127.119 10.0514 126.549 10.5004 126.549 11.668L126.487 62.839C126.487 63.0096 126.552 63.1737 126.67 63.2972C126.788 63.4207 126.949 63.4941 127.119 63.5022Z" fill="#5F5F5F"/>
<path d="M179.917 63.6273C188.839 64.2076 190.87 57.1817 191.244 49.9485C191.246 49.9039 191.261 49.8608 191.287 49.8247C191.314 49.7886 191.35 49.7612 191.392 49.7457C191.434 49.7302 191.48 49.7275 191.523 49.7378C191.567 49.748 191.606 49.7708 191.637 49.8035L191.886 50.0522C191.941 50.1074 191.969 50.1696 191.969 50.2387V63.99C191.969 64.1274 191.914 64.2592 191.817 64.3563C191.72 64.4535 191.588 64.5081 191.451 64.5081H169.948C169.561 64.5081 169.464 64.3423 169.658 64.0107L169.834 63.7206C169.878 63.6451 169.941 63.5824 170.018 63.5387C170.093 63.4951 170.18 63.4721 170.269 63.4719H172.767C172.838 63.4719 172.91 63.4577 172.977 63.43C173.044 63.4024 173.104 63.362 173.155 63.311C173.206 63.2599 173.247 63.1994 173.274 63.1328C173.302 63.0662 173.316 62.9948 173.316 62.9226V10.9537C173.316 10.484 173.084 10.2352 172.622 10.2076L169.938 10.0522C169.908 10.051 169.879 10.0436 169.853 10.0303C169.826 10.017 169.802 9.99813 169.782 9.97484C169.763 9.95157 169.748 9.92436 169.74 9.89489C169.731 9.86542 169.727 9.83431 169.731 9.80345C169.737 9.65837 169.789 9.53747 169.886 9.44076C169.948 9.37858 170.045 9.34749 170.176 9.34749C177.008 9.30604 183.84 9.30604 190.674 9.34749C191.019 9.34749 191.192 9.51675 191.192 9.85527V23.0988C191.192 23.762 191.047 23.7931 190.757 23.1921C190.583 22.8259 190.497 22.4149 190.497 21.9589C190.477 15.2439 187.295 9.28532 179.834 10.2698C179.523 10.3112 179.364 10.4943 179.358 10.819L179.047 34.8397C179.045 35.063 179.123 35.2793 179.268 35.4474C179.414 35.6155 179.615 35.7238 179.834 35.7516C184.487 36.332 185.171 29.9278 185.326 26.5599C185.329 26.4307 185.383 26.3079 185.477 26.2186C185.57 26.1292 185.694 26.0805 185.824 26.0833C185.952 26.086 186.076 26.1399 186.165 26.2332C186.254 26.3265 186.303 26.4514 186.301 26.5807L186.197 46.5392C186.195 46.6035 186.174 46.6657 186.137 46.718C186.1 46.7702 186.048 46.8101 185.988 46.8325C185.926 46.8548 185.861 46.8585 185.799 46.8432C185.737 46.8278 185.68 46.7941 185.637 46.7465C185.244 46.2975 185.098 45.5789 185.202 44.591C185.623 40.3976 183.827 37.7586 179.814 36.6739C179.454 36.5772 179.275 36.7154 179.275 37.0884V62.9434C179.275 63.3717 179.488 63.5996 179.917 63.6273Z" fill="#5F5F5F"/>
<path d="M176.166 73.2748V87.3369C176.167 87.6182 176.079 87.8929 175.916 88.123C175.752 88.3532 175.521 88.5275 175.254 88.6219C174.632 88.8361 174.166 88.7463 173.855 88.3525C173.669 88.1245 173.575 87.748 173.575 87.2229C173.575 80.7636 173.562 74.0348 173.534 67.0364C173.527 66.0555 173.865 65.9208 174.549 66.6323L189.979 82.7359C190.038 82.7954 190.114 82.8359 190.197 82.8523C190.28 82.8686 190.365 82.8602 190.443 82.8281C190.52 82.7959 190.587 82.7415 190.633 82.6715C190.68 82.6016 190.705 82.5194 190.705 82.4354L190.332 67.2644C190.331 67.1729 190.347 67.0819 190.381 66.997C190.416 66.9122 190.467 66.8351 190.532 66.7704C190.597 66.7056 190.674 66.6545 190.759 66.6201C190.844 66.5857 190.935 66.5687 191.026 66.5701L192.632 66.6012C193.095 66.6151 193.327 66.8534 193.327 67.3162L193.078 88.4872C193.076 88.5667 193.05 88.6437 193.004 88.7086C192.959 88.7735 192.894 88.8236 192.82 88.8523C192.746 88.8811 192.665 88.8873 192.588 88.8703C192.51 88.8533 192.438 88.8137 192.384 88.7566L177.192 72.8602C177.109 72.7768 177.002 72.7198 176.887 72.6963C176.771 72.6728 176.651 72.6839 176.542 72.728C176.432 72.7723 176.338 72.8476 176.272 72.9449C176.204 73.0421 176.168 73.1568 176.166 73.2748Z" fill="#5F5F5F"/>
<path d="M48.6632 72.6113C43.2538 81.1708 53.5336 90.9118 61.7823 84.3418C61.8927 84.2577 62.0317 84.2203 62.1694 84.2378C62.307 84.2552 62.4323 84.3261 62.5181 84.4351C63.1744 85.278 63.1226 86.0447 62.3626 86.7356C57.1191 91.5128 48.2383 87.9273 45.6787 82.0309C41.316 71.9999 52.3937 62.3315 61.6787 67.5543C62.86 68.2175 63.1157 69.2503 62.4455 70.6527C62.3143 70.9291 62.1312 70.967 61.8963 70.7667C57.5751 67.1916 51.4818 68.1449 48.6632 72.6113Z" fill="#5F5F5F"/>
<path d="M88.798 77.5345C88.798 80.5522 87.5992 83.4463 85.4653 85.5802C83.3316 87.714 80.4375 88.9127 77.4197 88.9127C74.402 88.9127 71.5079 87.714 69.374 85.5802C67.2403 83.4463 66.0415 80.5522 66.0415 77.5345C66.0415 74.5168 67.2403 71.6227 69.374 69.4889C71.5079 67.355 74.402 66.1562 77.4197 66.1562C80.4375 66.1562 83.3316 67.355 85.4653 69.4889C87.5992 71.6227 88.798 74.5168 88.798 77.5345ZM86.3213 77.5138C86.3213 75.1474 85.3813 72.878 83.708 71.2047C82.0348 69.5315 79.7653 68.5915 77.399 68.5915C75.0327 68.5915 72.7633 69.5315 71.09 71.2047C69.4167 72.878 68.4767 75.1474 68.4767 77.5138C68.4767 79.8801 69.4167 82.1495 71.09 83.8228C72.7633 85.496 75.0327 86.436 77.399 86.436C79.7653 86.436 82.0348 85.496 83.708 83.8228C85.3813 82.1495 86.3213 79.8801 86.3213 77.5138Z" fill="#5F5F5F"/>
<path d="M119.43 82.1029C117.005 82.8801 114.839 81.7195 112.425 82.248C112.254 82.2867 112.094 82.364 111.96 82.4736C111.825 82.5833 111.718 82.7225 111.648 82.8801L109.347 88.0718C109.276 88.2295 109.162 88.3631 109.018 88.4568C108.875 88.5506 108.709 88.6004 108.539 88.6003H107.233C106.646 88.6003 106.474 88.3309 106.715 87.792L116.114 66.6003C116.159 66.501 116.231 66.4167 116.323 66.358C116.415 66.2992 116.521 66.2684 116.63 66.2696C116.739 66.2706 116.846 66.3034 116.936 66.3641C117.027 66.4247 117.097 66.5104 117.14 66.6107L126.114 87.6159C126.154 87.7075 126.174 87.8068 126.172 87.907C126.17 88.0072 126.146 88.1059 126.102 88.1964C126.057 88.287 125.994 88.3672 125.915 88.4315C125.837 88.4959 125.746 88.5428 125.648 88.5693C123.223 89.2014 122.052 84.6003 121.389 83.0148C121.236 82.645 120.95 82.3459 120.588 82.1771C120.225 82.0082 119.811 81.9817 119.43 82.1029ZM113.088 79.5019C113.062 79.5619 113.052 79.6273 113.058 79.6923C113.063 79.7573 113.085 79.8198 113.121 79.8743C113.158 79.9288 113.206 79.9735 113.263 80.0044C113.321 80.0352 113.386 80.0512 113.451 80.0511H119.586C119.651 80.0512 119.715 80.0352 119.773 80.0044C119.83 79.9735 119.879 79.9288 119.915 79.8743C119.951 79.8198 119.973 79.7573 119.978 79.6923C119.984 79.6273 119.974 79.5619 119.948 79.5019L116.881 72.0822C116.851 72.0109 116.8 71.9501 116.736 71.9074C116.672 71.8646 116.596 71.8418 116.518 71.8418C116.44 71.8418 116.365 71.8646 116.301 71.9074C116.236 71.9501 116.186 72.0109 116.155 72.0822L113.088 79.5019Z" fill="#5F5F5F"/>
<path d="M169.751 77.5124C169.751 80.5273 168.553 83.4188 166.422 85.5507C164.29 87.6827 161.399 88.8803 158.384 88.8803C155.369 88.8803 152.477 87.6827 150.345 85.5507C148.214 83.4188 147.016 80.5273 147.016 77.5124C147.016 74.4975 148.214 71.606 150.345 69.4742C152.477 67.3422 155.369 66.1445 158.384 66.1445C161.399 66.1445 164.29 67.3422 166.422 69.4742C168.553 71.606 169.751 74.4975 169.751 77.5124ZM167.295 77.5331C167.295 76.3601 167.064 75.1985 166.616 74.1148C166.167 73.0311 165.509 72.0463 164.679 71.2169C163.85 70.3873 162.865 69.7294 161.781 69.2805C160.697 68.8316 159.536 68.6005 158.363 68.6005C155.994 68.6005 153.721 69.5416 152.047 71.2169C150.371 72.892 149.43 75.164 149.43 77.5331C149.43 78.7062 149.661 79.8677 150.11 80.9515C150.559 82.0353 151.217 83.02 152.047 83.8495C152.876 84.6789 153.861 85.337 154.944 85.7859C156.028 86.2348 157.19 86.4658 158.363 86.4658C159.536 86.4658 160.697 86.2348 161.781 85.7859C162.865 85.337 163.85 84.6789 164.679 83.8495C165.509 83.02 166.167 82.0353 166.616 80.9515C167.064 79.8677 167.295 78.7062 167.295 77.5331Z" fill="#5F5F5F"/>
<path d="M10.166 67.399C10.1687 67.1617 10.2649 66.9351 10.4337 66.7682C10.6025 66.6014 10.8302 66.5078 11.0675 66.5078L15.451 66.5493C18.3856 66.5749 21.1903 67.7223 23.2483 69.7395C25.3062 71.7566 26.4489 74.4783 26.4251 77.3057V77.969C26.4133 79.3696 26.1153 80.754 25.5481 82.0434C24.9808 83.3327 24.1554 84.5015 23.1189 85.483C22.0826 86.4646 20.8554 87.2396 19.5077 87.764C18.16 88.2883 16.7181 88.5516 15.2644 88.5389L10.881 88.4975C10.7626 88.4961 10.6457 88.4714 10.5368 88.4249C10.428 88.3783 10.3293 88.3107 10.2465 88.226C10.1638 88.1414 10.0985 88.0413 10.0545 87.9313C10.0104 87.8214 9.98844 87.7039 9.98981 87.5855L10.166 67.399ZM12.5701 69.5648L12.7567 85.5441C12.758 85.6326 12.7768 85.7198 12.8119 85.8011C12.847 85.8823 12.8977 85.9558 12.9612 86.0173C13.0247 86.0789 13.0998 86.1274 13.182 86.16C13.2642 86.1926 13.3521 86.2086 13.4406 86.2073L15.1919 86.1866C16.3435 86.1722 17.4812 85.9452 18.54 85.5187C19.5987 85.0922 20.5578 84.4743 21.3623 83.7007C22.1668 82.9269 22.8011 82.0124 23.2288 81.0094C23.6566 80.0064 23.8693 78.9344 23.8551 77.855L23.8447 76.9638C23.8163 74.7867 22.8673 72.7104 21.2061 71.191C19.5449 69.6716 17.3073 68.8333 14.9846 68.8601L13.2333 68.8809C13.1448 68.8822 13.0576 68.901 12.9763 68.9361C12.8951 68.9712 12.8216 69.0219 12.7601 69.0854C12.6984 69.1489 12.65 69.224 12.6174 69.3063C12.5848 69.3884 12.5688 69.4763 12.5701 69.5648Z" fill="#5F5F5F"/>
<path d="M32.6735 69.4091L32.5595 74.7148C32.5582 74.8064 32.5752 74.8973 32.6096 74.9822C32.6439 75.067 32.695 75.1441 32.7597 75.2089C32.8245 75.2737 32.9016 75.3247 32.9865 75.359C33.0713 75.3934 33.1622 75.4104 33.2538 75.4091L40.7461 75.3366C41.0432 75.3366 41.1917 75.485 41.1917 75.7821V76.8391C41.1917 77.2813 40.9671 77.5058 40.5181 77.5127L33.5129 77.5334C33.2811 77.5361 33.0597 77.6291 32.8968 77.792C32.7338 77.955 32.6424 78.1748 32.6424 78.4039V85.2226C32.6421 85.4832 32.7419 85.734 32.9213 85.923C33.1007 86.112 33.346 86.2248 33.6062 86.2381C35.5889 86.3417 37.6199 86.3037 39.6994 86.1241C40.2245 86.0827 40.6286 86.1552 40.9119 86.3417C41.43 86.6871 41.6027 87.1984 41.43 87.8754C41.3736 88.0967 41.2443 88.2921 41.0635 88.4296C40.8827 88.5671 40.6611 88.6384 40.4352 88.6319L30.9948 88.3832C30.7418 88.3751 30.502 88.2689 30.326 88.0871C30.15 87.9053 30.0517 87.6621 30.0518 87.4091V67.2226C30.0518 66.7943 30.2694 66.5801 30.7046 66.5801H40.9533C41.4507 66.5801 41.6856 66.8288 41.658 67.3262L41.5854 68.4765C41.5717 68.7666 41.4162 68.9117 41.1191 68.9117H33.1813C32.8497 68.9117 32.6805 69.0775 32.6735 69.4091Z" fill="#5F5F5F"/>
<path d="M94.7666 79.5442L94.9428 87.5857C94.9456 87.718 94.9218 87.8496 94.873 87.9727C94.8243 88.0958 94.7515 88.208 94.6588 88.3026C94.5662 88.3972 94.4556 88.4723 94.3335 88.5236C94.2115 88.5749 94.0804 88.6012 93.948 88.6012H93.1397C92.7044 88.6012 92.4868 88.3836 92.4868 87.9484V67.1505C92.4868 66.8948 92.6146 66.7463 92.8702 66.7049C96.3832 66.166 101.119 66.3214 102.995 69.7515C104.632 72.7359 103.285 77.8033 99.2433 78.3836C99.1184 78.4031 99.0005 78.4541 98.9008 78.5317C98.8011 78.6092 98.723 78.7107 98.6741 78.8262C98.6251 78.9419 98.6069 79.0677 98.6213 79.1917C98.6357 79.3156 98.6822 79.4335 98.7562 79.5339L104.756 87.7826C105.018 88.1419 104.94 88.3906 104.518 88.5287C103.399 88.881 102.269 88.7463 101.533 87.679C99.7303 85.0745 97.8098 82.2558 95.7718 79.223C95.7055 79.1241 95.6088 79.0494 95.4963 79.0102C95.3839 78.9711 95.2618 78.9694 95.1485 79.0057C95.035 79.042 94.9365 79.1141 94.8675 79.2112C94.7987 79.3084 94.7633 79.4253 94.7666 79.5442ZM94.8806 69.5753V75.9588C94.8806 76.0445 94.8975 76.1294 94.9303 76.2086C94.9631 76.2878 95.0112 76.3598 95.0718 76.4204C95.1324 76.481 95.2044 76.5291 95.2836 76.5619C95.3628 76.5947 95.4478 76.6116 95.5335 76.6116H97.036C98.1024 76.6116 99.1251 76.2852 99.8791 75.7041C100.633 75.123 101.057 74.3349 101.057 73.5132V72.0209C101.057 71.1992 100.633 70.4111 99.8791 69.83C99.1251 69.2489 98.1024 68.9225 97.036 68.9225H95.5335C95.3603 68.9225 95.1943 68.9913 95.0718 69.1137C94.9494 69.2362 94.8806 69.4022 94.8806 69.5753Z" fill="#5F5F5F"/>
<path d="M124.871 68.4246V67.0671C124.871 66.9379 124.922 66.8141 125.014 66.7228C125.105 66.6314 125.228 66.5801 125.358 66.5801H137.596C137.726 66.5801 137.849 66.6314 137.94 66.7228C138.031 66.8141 138.083 66.9379 138.083 67.0671V68.4246C138.083 68.5539 138.031 68.6777 137.94 68.769C137.849 68.8604 137.726 68.9117 137.596 68.9117H133.13C133 68.9117 132.877 68.963 132.786 69.0544C132.694 69.1457 132.643 69.2695 132.643 69.3987V88.0205C132.642 88.1347 132.601 88.245 132.528 88.3322C132.453 88.4193 132.351 88.4777 132.238 88.4972L130.601 88.7873C130.531 88.7996 130.458 88.796 130.39 88.7771C130.32 88.7581 130.256 88.7241 130.202 88.6777C130.147 88.6312 130.104 88.5732 130.075 88.5081C130.045 88.4428 130.03 88.3719 130.031 88.3003L130.207 69.3987C130.207 69.2695 130.156 69.1457 130.064 69.0544C129.973 68.963 129.85 68.9117 129.72 68.9117H125.358C125.228 68.9117 125.105 68.8604 125.014 68.769C124.922 68.6777 124.871 68.5539 124.871 68.4246Z" fill="#5F5F5F"/>
<path d="M142.238 66.5176H141.699C141.132 66.5176 140.673 66.9769 140.673 67.5435V87.502C140.673 88.0687 141.132 88.5279 141.699 88.5279H142.238C142.805 88.5279 143.264 88.0687 143.264 87.502V67.5435C143.264 66.9769 142.805 66.5176 142.238 66.5176Z" fill="#5F5F5F"/>
</svg>
