<svg width="200" height="17" viewBox="0 0 200 17" fill="none" xmlns="http://www.w3.org/2000/svg">
<path d="M176.151 0H178.25C179.969 0.191373 181.547 0.8 182.984 1.82588C183.047 1.87152 183.1 1.92944 183.14 1.99608C183.179 2.06272 183.205 2.13667 183.215 2.21337C183.225 2.29008 183.22 2.36792 183.198 2.44209C183.177 2.51627 183.141 2.58522 183.092 2.64471L181.116 5.08706C181.081 5.12969 181.037 5.16485 180.988 5.1904C180.94 5.21595 180.886 5.23139 180.831 5.23576C180.777 5.24019 180.721 5.23341 180.669 5.21595C180.617 5.19849 180.569 5.17064 180.527 5.13412C179.752 4.44706 178.868 4.03921 177.873 3.91059C171.464 3.08235 171.332 13.5859 178.466 12.4941C179.751 12.3012 180.348 11.4353 179.69 10.2259C179.652 10.1574 179.597 10.1002 179.53 10.0605C179.463 10.0207 179.387 9.99981 179.308 10H177.083C176.866 10 176.755 9.89176 176.748 9.67529L176.692 7.14353C176.691 7.10198 176.698 7.06056 176.713 7.02179C176.729 6.98306 176.752 6.94767 176.781 6.91784C176.81 6.888 176.845 6.86428 176.884 6.84809C176.923 6.83186 176.965 6.82353 177.007 6.82353H183.525C183.649 6.82353 183.768 6.87195 183.856 6.95831C183.944 7.04466 183.994 7.16198 183.996 7.28471C184.011 9.1608 184.01 11.0902 183.991 13.0729C183.963 15.68 177.939 16.4376 176.306 16.2729C166.005 15.2471 165.958 1.46824 176.151 0Z" fill="#5F5F5F"/>
<path d="M148.767 13.3376L150.456 11.2058C150.548 11.0886 150.682 11.0111 150.83 10.9893C150.977 10.9674 151.128 11.0028 151.252 11.0882C152.852 12.1894 154.604 12.7274 156.508 12.7023C156.757 12.6983 156.998 12.6158 157.196 12.4669C157.393 12.318 157.538 12.1104 157.609 11.8741C157.841 11.1148 157.455 10.638 156.452 10.4435C153.129 9.80348 147.285 8.00583 149.487 3.13522C151.407 -1.10478 157.901 -0.318892 161.129 1.5964C161.218 1.64854 161.294 1.71843 161.355 1.80166C161.414 1.8849 161.457 1.97968 161.478 2.08003C161.5 2.18038 161.501 2.28414 161.48 2.38475C161.46 2.48537 161.419 2.58066 161.36 2.66464L159.727 4.98465C159.633 5.12267 159.517 5.1462 159.379 5.05524C158.301 4.33993 154.052 2.41052 153.614 4.69758C153.601 4.76823 153.603 4.84103 153.621 4.91091C153.639 4.98084 153.672 5.04611 153.718 5.1023C154.103 5.56973 154.51 5.83642 154.936 5.9023C157.336 6.26936 159.208 6.89994 160.55 7.79406C162.616 9.16818 162.503 12.5799 161.021 14.3917C158.263 17.7611 151.68 16.1235 148.668 13.9729C148.502 13.8536 148.409 13.896 148.39 14.0999L148.245 15.7423C148.237 15.8301 148.196 15.9116 148.13 15.9708C148.065 16.0301 147.98 16.0627 147.892 16.0623L135.986 15.9729C135.865 15.9729 135.749 15.9248 135.663 15.8392C135.577 15.7536 135.529 15.6375 135.529 15.5164V0.706989C135.529 0.582184 135.579 0.462486 135.667 0.374234C135.755 0.285981 135.875 0.236402 136 0.236402H147.765C147.889 0.236402 148.009 0.285981 148.097 0.374234C148.186 0.462486 148.235 0.582184 148.235 0.706989V3.54464C148.235 3.60807 148.222 3.67087 148.198 3.72942C148.174 3.78796 148.138 3.84109 148.093 3.88572C148.048 3.93036 147.994 3.96561 147.935 3.98946C147.877 4.0133 147.814 4.02526 147.75 4.02464L140.174 3.94934C140.02 3.94934 139.94 4.02621 139.934 4.17993L139.868 6.11406C139.867 6.14799 139.872 6.18187 139.885 6.21354C139.896 6.24521 139.915 6.27406 139.938 6.2983C139.961 6.32253 139.99 6.34164 140.02 6.35449C140.051 6.36729 140.084 6.37354 140.118 6.37289L147.172 6.34465C147.332 6.34465 147.412 6.42465 147.412 6.58465V9.53524C147.412 9.77364 147.293 9.89129 147.054 9.88818L140.254 9.84112C140.172 9.84103 140.092 9.87279 140.032 9.92978C139.973 9.98677 139.938 10.0646 139.934 10.147L139.863 12.0341C139.862 12.0756 139.869 12.117 139.884 12.1558C139.899 12.1946 139.922 12.2299 139.951 12.2598C139.98 12.2896 140.014 12.3134 140.053 12.3295C140.091 12.3457 140.133 12.3541 140.174 12.3541C142.678 12.3541 145.168 12.3525 147.647 12.3494C148.212 12.3494 148.486 12.6427 148.47 13.2294C148.469 13.2647 148.478 13.2999 148.497 13.3295C148.517 13.3591 148.545 13.3817 148.578 13.3939C148.612 13.406 148.648 13.4071 148.682 13.397C148.716 13.3868 148.746 13.366 148.767 13.3376Z" fill="#5F5F5F"/>
<path d="M80.2072 16.4712H78.4613C66.7013 14.8147 69.8684 -1.84408 81.1107 0.297097C90.5507 2.09945 90.0048 15.05 80.2072 16.4712ZM79.6599 12.5767C80.186 12.5454 80.7008 12.4045 81.1742 12.162C81.6477 11.9194 82.0707 11.58 82.4194 11.1632C82.7681 10.7463 83.0354 10.2601 83.2058 9.7323C83.3766 9.20454 83.4477 8.64557 83.4142 8.08727C83.3813 7.52896 83.2448 6.98228 83.0128 6.47847C82.7808 5.97466 82.4575 5.5235 82.0622 5.15084C81.6665 4.77818 81.2062 4.49127 80.7074 4.3065C80.2086 4.12174 79.6811 4.04273 79.1549 4.07399C78.6284 4.10525 78.114 4.24617 77.6406 4.4887C77.1672 4.73122 76.7441 5.07066 76.3954 5.4875C76.0467 5.9044 75.7794 6.39061 75.6086 6.91837C75.4378 7.44614 75.3672 8.0051 75.4001 8.56341C75.4335 9.12171 75.57 9.66835 75.802 10.1722C76.034 10.676 76.3568 11.1272 76.7526 11.4998C77.1479 11.8725 77.6081 12.1594 78.1074 12.3442C78.6062 12.5289 79.1338 12.6079 79.6599 12.5767Z" fill="#5F5F5F"/>
<path d="M119.591 0.700966C119.592 0.581968 119.64 0.468264 119.725 0.384557C119.81 0.30085 119.924 0.2539 120.043 0.253906L126.494 0.277436C128.65 0.28547 130.713 1.08022 132.232 2.4869C133.751 3.89359 134.6 5.79702 134.593 7.77862V8.55039C134.59 9.53194 134.376 10.5031 133.964 11.4085C133.553 12.3139 132.951 13.1357 132.194 13.827C131.436 14.5184 130.538 15.0657 129.551 15.4377C128.563 15.8097 127.505 15.9991 126.438 15.9951L119.986 15.9716C119.927 15.971 119.868 15.9586 119.813 15.9354C119.759 15.9121 119.709 15.8783 119.668 15.8359C119.627 15.7935 119.594 15.7434 119.572 15.6883C119.549 15.6333 119.539 15.5744 119.539 15.5151L119.591 0.700966ZM124.005 4.45626L123.996 11.8351C123.996 11.9237 124.031 12.0087 124.093 12.0713C124.156 12.134 124.241 12.1692 124.33 12.1692L125.953 12.1739C126.501 12.1746 127.043 12.0762 127.549 11.8843C128.055 11.6925 128.516 11.4108 128.903 11.0556C129.291 10.7003 129.598 10.2783 129.808 9.81373C130.019 9.34916 130.127 8.85114 130.127 8.34803V7.96215C130.128 6.94634 129.69 5.97161 128.909 5.25241C128.128 4.53316 127.068 4.12829 125.963 4.12685L124.339 4.12214C124.295 4.12214 124.252 4.13078 124.211 4.14757C124.171 4.16436 124.134 4.18898 124.103 4.22C124.072 4.25103 124.047 4.28786 124.03 4.3284C124.013 4.36893 124.005 4.41238 124.005 4.45626Z" fill="#5F5F5F"/>
<path d="M167.134 0.234375H163.567C163.351 0.234375 163.176 0.409248 163.176 0.624963V15.6461C163.176 15.8619 163.351 16.0367 163.567 16.0367H167.134C167.349 16.0367 167.525 15.8619 167.525 15.6461V0.624963C167.525 0.409248 167.349 0.234375 167.134 0.234375Z" fill="#5F5F5F"/>
<path d="M200 0.315529V16.0661L196.405 15.9861C196.322 15.9847 196.24 15.9645 196.165 15.927C196.091 15.8895 196.027 15.8357 195.977 15.7696L190.165 8.2967C189.635 7.61905 189.373 7.71002 189.379 8.56964L189.426 15.6238C189.428 15.7166 189.392 15.8062 189.328 15.8731C189.263 15.94 189.175 15.979 189.083 15.9814L185.511 16.0473C185.452 16.0486 185.394 16.0379 185.339 16.016C185.284 15.9941 185.234 15.9614 185.192 15.9197C185.15 15.8781 185.116 15.8284 185.093 15.7735C185.071 15.7187 185.059 15.6598 185.059 15.6002V0.550823C185.059 0.365725 185.15 0.273176 185.332 0.273176L188.908 0.240235C188.99 0.240174 189.072 0.259221 189.146 0.295921C189.22 0.332621 189.285 0.386005 189.337 0.451999L195.407 8.27317C195.427 8.29755 195.453 8.31529 195.484 8.3239C195.513 8.33251 195.545 8.33162 195.575 8.32127C195.604 8.31091 195.63 8.29171 195.648 8.26621C195.666 8.24075 195.676 8.2103 195.676 8.17905L195.633 0.58847C195.633 0.546667 195.642 0.505279 195.658 0.466715C195.674 0.428152 195.697 0.393183 195.727 0.363843C195.757 0.334503 195.792 0.311377 195.831 0.295812C195.87 0.280246 195.911 0.272552 195.953 0.273176L200 0.315529Z" fill="#5F5F5F"/>
<path d="M0 16.1453V0.540569L4.05176 0.394685C4.09088 0.393424 4.12985 0.399916 4.16635 0.413776C4.20285 0.427636 4.23614 0.44858 4.26424 0.475364C4.29234 0.502145 4.31467 0.534221 4.32991 0.569675C4.34515 0.605129 4.35298 0.643242 4.35294 0.681745V15.8959C4.35294 16.0998 4.25255 16.2002 4.05176 16.197L0 16.1453Z" fill="#5F5F5F"/>
<path d="M9.74575 7.90723L9.77398 15.879C9.77398 16.1174 9.65478 16.2366 9.41634 16.2366H5.7081C5.51045 16.2366 5.41163 16.1394 5.41163 15.9449V0.721339C5.4113 0.679024 5.42001 0.637128 5.43723 0.598464C5.45441 0.559801 5.47968 0.525264 5.51135 0.49718C5.54297 0.469094 5.58029 0.44811 5.62071 0.435637C5.66114 0.423164 5.70377 0.419492 5.74575 0.424867C7.01163 0.580163 9.17634 -0.0551334 10.0328 1.03193C11.9968 3.51663 13.9152 5.99664 15.7881 8.47194C15.8099 8.4998 15.8399 8.52046 15.8739 8.5309C15.9079 8.54135 15.9441 8.54107 15.9774 8.53015C16.0107 8.51918 16.0395 8.49815 16.0595 8.46996C16.0796 8.44177 16.09 8.40789 16.0893 8.37311L16.0469 0.815457C16.0469 0.732191 16.0793 0.652191 16.1373 0.592445C16.1953 0.532695 16.2743 0.497904 16.3575 0.495457L19.8163 0.420161C19.897 0.418272 19.9773 0.432492 20.0523 0.461976C20.1273 0.491462 20.1957 0.535608 20.2532 0.591791C20.3107 0.64798 20.3562 0.715062 20.3871 0.789052C20.4179 0.863043 20.4335 0.942436 20.4328 1.02252L20.3199 15.9684C20.3199 16.0053 20.3124 16.0418 20.298 16.0757C20.2835 16.1097 20.2623 16.1405 20.2355 16.1664C20.2089 16.1923 20.1771 16.2126 20.1423 16.2263C20.1075 16.2399 20.0703 16.2467 20.0328 16.2461L16.8516 16.2084C16.7563 16.2084 16.6622 16.1863 16.5765 16.1438C16.4908 16.1014 16.4159 16.0397 16.3575 15.9637L10.0375 7.80841C10.0163 7.78257 9.98768 7.76384 9.95554 7.75467C9.92335 7.74549 9.88918 7.74634 9.85751 7.75707C9.82584 7.7678 9.79822 7.78789 9.77822 7.81471C9.75827 7.84154 9.74692 7.87382 9.74575 7.90723Z" fill="#5F5F5F"/>
<path d="M30.5691 4.72571L30.5973 15.7516C30.5973 15.8802 30.5463 16.0035 30.4554 16.0943C30.3645 16.1852 30.2412 16.2363 30.1126 16.2363H26.6021C26.4735 16.2363 26.3502 16.1852 26.2593 16.0943C26.1684 16.0035 26.1173 15.8802 26.1173 15.7516V4.70218C26.1174 4.63692 26.1043 4.57231 26.0787 4.51224C26.0532 4.45217 26.0158 4.39788 25.9688 4.35261C25.9218 4.30735 25.8661 4.27205 25.8051 4.24883C25.7441 4.22561 25.679 4.21494 25.6138 4.21748L21.9385 4.36806C21.8737 4.37059 21.809 4.36007 21.7484 4.33714C21.6877 4.31421 21.6322 4.27933 21.5853 4.23456C21.5383 4.1898 21.5008 4.13607 21.475 4.07655C21.4492 4.01703 21.4356 3.95293 21.435 3.88806L21.4068 0.975123C21.4061 0.911076 21.4182 0.847542 21.4423 0.788191C21.4664 0.728836 21.502 0.67485 21.547 0.62934C21.5921 0.583829 21.6458 0.547707 21.7049 0.523053C21.764 0.498403 21.8274 0.485711 21.8915 0.485711L34.8091 0.443359C34.9377 0.443359 35.0609 0.494427 35.1518 0.585325C35.2428 0.676224 35.2938 0.799514 35.2938 0.928064V3.75159C35.2938 3.88015 35.2428 4.00343 35.1518 4.09433C35.0609 4.18524 34.9377 4.2363 34.8091 4.2363L31.0538 4.24101C30.9253 4.24101 30.802 4.29207 30.7111 4.38297C30.6202 4.47388 30.5691 4.59716 30.5691 4.72571Z" fill="#5F5F5F"/>
<path d="M41.2189 6.52186L47.9625 6.44657C48.0138 6.44591 48.0641 6.45546 48.1116 6.47457C48.1592 6.49368 48.202 6.52201 48.2382 6.55791C48.2749 6.59382 48.3036 6.63655 48.3234 6.68365C48.3427 6.73081 48.3531 6.78135 48.3531 6.83245V9.61363C48.3531 9.71598 48.3126 9.8141 48.2401 9.88648C48.1676 9.95885 48.0693 9.99951 47.9672 9.99951H41.2095C41.1072 9.99951 41.0091 10.0402 40.9367 10.1125C40.8643 10.1849 40.8236 10.283 40.8236 10.3854V12.0842C40.8236 12.1866 40.8643 12.2847 40.9367 12.3571C41.0091 12.4294 41.1072 12.4701 41.2095 12.4701H48.9083C48.9592 12.4701 49.0091 12.4801 49.0561 12.4995C49.1027 12.5189 49.1455 12.5473 49.1813 12.5831C49.2171 12.6189 49.2453 12.6615 49.2651 12.7083C49.2844 12.7551 49.2942 12.8053 49.2942 12.856V15.8489C49.2942 15.9513 49.2538 16.0494 49.1813 16.1218C49.1088 16.1941 49.0105 16.2348 48.9083 16.2348H36.8566C36.7542 16.2348 36.6561 16.1941 36.5837 16.1218C36.5114 16.0494 36.4707 15.9513 36.4707 15.8489V0.86538C36.4707 0.763041 36.5114 0.664891 36.5837 0.592524C36.6561 0.520156 36.7542 0.479498 36.8566 0.479498L48.7907 0.427734C48.8928 0.427734 48.9912 0.46839 49.0636 0.540759C49.1361 0.613126 49.1766 0.711276 49.1766 0.813615V3.73126C49.1766 3.83361 49.1361 3.93176 49.0636 4.00412C48.9912 4.07649 48.8928 4.11714 48.7907 4.11714H41.2142C41.1119 4.11714 41.0138 4.1578 40.9414 4.23017C40.869 4.30254 40.8284 4.40069 40.8284 4.50303V6.13598C40.8284 6.18704 40.8385 6.23763 40.8582 6.28474C40.8779 6.33184 40.9067 6.37462 40.943 6.41052C40.9794 6.44638 41.0225 6.47471 41.0698 6.49382C41.1172 6.51297 41.1679 6.52248 41.2189 6.52186Z" fill="#5F5F5F"/>
<path d="M60.1036 16.2255C60.0175 16.224 59.9337 16.2022 59.8584 16.1621C59.7831 16.122 59.7187 16.0647 59.6707 15.995C58.7013 14.5691 56.9742 10.6491 54.9271 11.5385C54.7799 11.6012 54.706 11.7126 54.706 11.8726V15.9432C54.706 16.1377 54.6071 16.2349 54.4095 16.2349H50.706C50.4707 16.2349 50.353 16.1173 50.353 15.882V0.714945C50.353 0.545533 50.4377 0.460826 50.6071 0.460826C55.8119 0.465532 65.3083 -0.979173 64.2589 6.68671C64.0297 8.35575 63.1093 9.63415 61.4966 10.522C61.4481 10.5485 61.4057 10.5848 61.3723 10.6287C61.3389 10.6725 61.3149 10.7229 61.3022 10.7765C61.2895 10.8301 61.2881 10.8858 61.298 10.9401C61.3078 10.9943 61.329 11.0459 61.3601 11.0914L64.5789 15.8679C64.745 16.1189 64.6777 16.2428 64.3766 16.2397L60.1036 16.2255ZM54.706 4.45612L54.6966 7.75024C54.6966 7.78177 54.7027 7.81297 54.7149 7.8421C54.7267 7.87118 54.7446 7.89768 54.7667 7.91994C54.7893 7.94224 54.8156 7.95989 54.8448 7.97198C54.874 7.98403 54.905 7.99024 54.9366 7.99024L57.6942 7.99966C58.2966 8.00144 58.8744 7.81358 59.3017 7.47744C59.7286 7.14126 59.9695 6.68427 59.9719 6.20671V6.0373C59.9728 5.80036 59.9149 5.56554 59.8015 5.3462C59.6881 5.1269 59.5215 4.92737 59.3107 4.75914C59.0999 4.59084 58.8495 4.4571 58.5737 4.36554C58.298 4.27398 58.0024 4.22641 57.7036 4.22553L54.946 4.21612C54.8824 4.21612 54.8213 4.24141 54.7761 4.28641C54.7314 4.33142 54.706 4.39247 54.706 4.45612Z" fill="#5F5F5F"/>
<path d="M69.5198 0.427734H65.8775C65.6775 0.427734 65.5151 0.589964 65.5151 0.790086V15.8677C65.5151 16.0678 65.6775 16.2301 65.8775 16.2301H69.5198C69.7198 16.2301 69.8822 16.0678 69.8822 15.8677V0.790086C69.8822 0.589964 69.7198 0.427734 69.5198 0.427734Z" fill="#5F5F5F"/>
<path d="M99.7929 11.011L103.172 15.9193C103.192 15.9495 103.204 15.9847 103.206 16.021C103.208 16.0574 103.2 16.0937 103.183 16.1259C103.166 16.1582 103.141 16.1854 103.11 16.2045C103.079 16.2236 103.043 16.234 103.007 16.2345H98.6353C98.5525 16.2345 98.471 16.2143 98.3981 16.1758C98.3247 16.1372 98.2626 16.0815 98.2165 16.0134C97.4197 14.8589 96.648 13.7012 95.9012 12.5404C95.2235 11.4816 94.6306 11.0722 93.3929 11.4957C93.3242 11.5203 93.2654 11.5658 93.224 11.6257C93.1826 11.6857 93.1609 11.757 93.1623 11.8298L93.2282 15.6745C93.2296 15.7476 93.216 15.8202 93.1892 15.8881C93.1619 15.9561 93.1214 16.0178 93.0701 16.07C93.0193 16.1221 92.9581 16.1635 92.8903 16.1918C92.823 16.22 92.7506 16.2345 92.6776 16.2345H89.1106C88.9096 16.2345 88.8094 16.1342 88.8094 15.9334L88.8047 0.827502C88.8047 0.611032 88.9129 0.501225 89.1294 0.49809C91.799 0.441618 94.4409 0.432206 97.0541 0.469855C103.087 0.563973 105.111 7.45808 99.8729 10.6345C99.7129 10.7318 99.6861 10.8573 99.7929 11.011ZM93.1764 4.71925L93.167 7.49572C93.167 7.62805 93.2197 7.75492 93.3129 7.84848C93.4066 7.94198 93.5336 7.99455 93.6659 7.99455L96.3435 7.99925C96.6221 7.99991 96.8983 7.95271 97.1562 7.86038C97.4141 7.76801 97.648 7.63234 97.8456 7.46099C98.0433 7.2897 98.2 7.08617 98.3073 6.86203C98.4146 6.63784 98.4701 6.39746 98.4706 6.15455V6.07925C98.4715 5.58881 98.2494 5.11798 97.8522 4.77026C97.455 4.42255 96.9157 4.22647 96.3529 4.22515L93.6753 4.22044C93.543 4.22044 93.416 4.273 93.3223 4.36654C93.2292 4.46009 93.1764 4.58697 93.1764 4.71925Z" fill="#5F5F5F"/>
<path d="M113.765 11.1994V14.743C113.765 14.8407 113.726 14.9346 113.657 15.0042C113.589 15.0738 113.495 15.1135 113.398 15.1147L108.847 15.1477C108.798 15.1483 108.749 15.1391 108.703 15.1207C108.658 15.1023 108.616 15.075 108.581 15.0405C108.546 15.0059 108.518 14.9647 108.499 14.9192C108.48 14.8738 108.47 14.8251 108.47 14.7759V11.1806C108.47 11.1314 108.461 11.0827 108.442 11.0373C108.423 10.9918 108.395 10.9506 108.36 10.916C108.325 10.8814 108.283 10.8542 108.238 10.8358C108.192 10.8174 108.143 10.8082 108.094 10.8088L104.555 10.8559C104.506 10.8565 104.456 10.8472 104.41 10.8285C104.365 10.8098 104.323 10.7821 104.287 10.747C104.253 10.7119 104.225 10.6702 104.206 10.6242C104.187 10.5783 104.178 10.529 104.179 10.4794L104.259 6.23943C104.261 6.14248 104.302 6.0503 104.371 5.98263C104.44 5.91491 104.534 5.87703 104.63 5.87707L108.094 5.90531C108.143 5.90592 108.192 5.89679 108.238 5.87839C108.283 5.85999 108.325 5.8327 108.36 5.79811C108.395 5.76352 108.423 5.72234 108.442 5.67688C108.461 5.63147 108.47 5.58277 108.47 5.53354V2.01825C108.47 1.91965 108.51 1.82509 108.579 1.75537C108.649 1.68565 108.743 1.64648 108.842 1.64648H113.374C113.472 1.64648 113.567 1.68565 113.637 1.75537C113.707 1.82509 113.746 1.91965 113.746 2.01825L113.755 5.51001C113.755 5.6086 113.794 5.70319 113.864 5.77288C113.934 5.84263 114.028 5.88178 114.127 5.88178H117.628C117.726 5.88178 117.821 5.92093 117.891 5.99067C117.961 6.06037 118 6.15495 118 6.25354V10.4512C118 10.5498 117.961 10.6444 117.891 10.7141C117.821 10.7838 117.726 10.823 117.628 10.823L114.136 10.8277C114.038 10.8277 113.943 10.8668 113.873 10.9366C113.804 11.0062 113.765 11.1008 113.765 11.1994Z" fill="#5F5F5F"/>
</svg>
