<svg width="200" height="36" viewBox="0 0 200 36" fill="none" xmlns="http://www.w3.org/2000/svg">
<path d="M38.4677 6.174H41.8646V1.2195H27.0923L20.9308 13.872L13.4277 1.2195H0V6.174H3.39692V29.955H0V34.9095H12.2431V29.8785H9.00462V16.539L18.4046 32.241L27.6462 12.729V29.8785H24.4077V34.9095H41.9431V29.8785H38.4662L38.4677 6.174ZM43.9969 6.174H47.6308V29.8785H44.1538V34.9095H61.6923V29.8785H58.2154V6.174H61.7708V1.2195H43.9969V6.174ZM200 6.174V1.2195H182.228V6.174H185.862V29.8785H182.386V34.9095H199.922V29.8785H196.446V6.174H200ZM134.518 29.193C132.702 29.193 130.489 25.077 130.489 17.76C130.489 10.9755 132.702 6.48 134.518 6.48C136.334 6.48 138.705 10.4415 138.705 17.76C138.705 25.6095 136.335 29.193 134.518 29.193ZM134.438 0C125.829 0 119.274 8.079 119.274 18.0645C119.274 28.0485 125.908 35.595 134.438 35.595C143.049 35.595 149.685 28.05 149.685 18.0645C149.685 8.079 143.049 0 134.438 0ZM167.851 6.174H171.328V16.2345L162.322 1.2195H150.078V6.174H153.238V29.802H150.078V34.9095H162.402V29.802H158.846V16.2345L169.431 34.9095H176.935V6.174H180.174V1.2195H167.851V6.174ZM110.743 15.93C110.743 15.93 102.054 12.576 101.738 9.3C101.738 9.3 101.422 5.64 105.766 5.9445C105.766 5.9445 110.822 6.021 110.98 10.9755V11.7375H116.429V1.2195H111.137V3.0495C108.926 0.8385 105.292 0.2295 103.555 0.153H103.08C100.789 0.153 98.42 0.6855 96.2092 2.286C96.2092 2.286 89.8092 6.327 92.18 13.566C92.18 13.566 93.2062 17.3775 98.0262 19.8165C98.0262 19.8165 102.843 22.4085 104.58 23.019C104.58 23.019 109.637 25.305 106.872 28.3545C106.872 28.3545 104.503 30.717 100.552 27.744C100.552 27.744 97.6292 25.839 96.7615 22.713H92.4169V34.908H97.4723V33.2325C97.4723 33.2325 105.371 38.7975 113.034 34.1475C113.034 34.1475 120.774 29.7255 117.535 22.1025C117.535 22.0275 116.192 18.0645 110.743 15.93ZM82.3077 15.93C82.3077 15.93 73.6185 12.576 73.3015 9.3C73.3015 9.3 72.9862 5.64 77.3308 5.9445C77.3308 5.9445 82.3846 6.021 82.5431 10.9755V11.7375H87.9938V1.2195H82.7015V3.0495C80.4892 0.8385 76.8554 0.2295 75.1185 0.153H74.6446C72.3539 0.153 69.9831 0.6855 67.7723 2.286C67.7723 2.286 61.3738 6.327 63.7446 13.566C63.7446 13.566 64.7708 17.3775 69.5892 19.8165C69.5892 19.8165 74.4077 22.4085 76.1462 23.019C76.1462 23.019 81.2 25.305 78.4354 28.3545C78.4354 28.3545 76.0662 30.717 72.1169 27.744C72.1169 27.744 69.1938 25.839 68.3246 22.713H63.9815V34.908H69.0369V33.2325C69.0369 33.2325 76.9354 38.7975 84.5969 34.1475C84.5969 34.1475 92.3385 29.7255 89.1 22.1025C89.1 22.0275 87.7585 18.0645 82.3077 15.93Z" fill="#5F5F5F"/>
</svg>
