<svg width="200" height="74" viewBox="0 0 200 74" fill="none" xmlns="http://www.w3.org/2000/svg">
<path d="M126.076 37.0403C123.901 48.3229 115.342 56.975 104.481 60.1789C99.1623 61.7478 93.91 61.5435 88.6782 59.7302C84.0824 58.1379 79.8078 55.5184 76.4115 52.0417C70.1126 45.5954 67.3123 37.1702 67.9769 28.1438C68.5387 20.5063 71.7292 13.5192 77.3374 8.34384C83.4554 2.69712 92.2605 -0.953784 100.706 0.305325C107.319 1.29068 113.501 4.5456 118.188 9.28148C125.446 16.6176 128.005 27.0311 126.076 37.0403ZM110.268 14.8537C109.189 9.18184 106.825 2.84362 100.267 1.76452C98.2162 1.42714 95.9419 1.43215 93.8631 1.85492C89.3649 2.76995 86.9079 6.21909 85.5064 10.3045C84.5136 13.1986 83.9694 16.2199 83.6404 19.2556C83.3385 22.0456 83.163 24.8428 83.1138 27.6473C83.0108 33.5368 83.1439 39.4012 84.0875 45.2539C84.7304 49.2471 85.9811 53.8709 88.9109 56.8194C91.4481 59.3719 94.7906 59.8641 98.2269 59.7369C101.39 59.6205 104.169 58.6444 106.241 56.178C107.799 54.3221 108.801 52.055 109.46 49.7695C110.559 45.9579 111.053 41.9068 111.277 37.9227C111.459 34.694 111.524 31.4623 111.473 28.2275C111.407 23.9998 111.105 19.253 110.268 14.8537Z" fill="#5F5F5F"/>
<path d="M9.50025 58.0571L9.5053 3.27519C9.5053 3.21157 9.47318 3.17976 9.40902 3.17976L0.0603431 3.18059C0.0499076 3.18059 0.0398995 3.17645 0.0325206 3.16907C0.0251416 3.16168 0.0209961 3.15168 0.0209961 3.14124V1.75489C0.0209961 1.73891 0.0273466 1.72357 0.0386506 1.71227C0.0499546 1.70097 0.0652861 1.69461 0.0812724 1.69461C9.54964 1.69294 19.0175 1.69294 28.4848 1.69461C29.5781 1.69517 30.8805 1.76856 32.3918 1.91479C42.5384 2.89846 51.5262 7.95749 56.2965 17.1505C57.9883 20.4096 58.9955 23.9893 59.4576 27.7306C60.4672 35.8905 58.8741 44.5745 53.0189 50.6733C47.0231 56.9185 38.2177 59.6034 29.7565 59.6059C19.8728 59.6092 9.98052 59.6078 0.079598 59.6017C0.0719023 59.6017 0.0642819 59.6002 0.057172 59.5972C0.0500621 59.5943 0.0436019 59.5899 0.0381602 59.5845C0.0327185 59.5791 0.0284019 59.5726 0.0254569 59.5655C0.0225118 59.5584 0.0209961 59.5508 0.0209961 59.5431V58.1819C0.0209961 58.126 0.0489018 58.0982 0.104713 58.0982L9.45928 58.099C9.48663 58.099 9.50025 58.085 9.50025 58.0571ZM22.1985 58.1015C24.7061 58.1015 27.2079 58.0945 29.7037 58.0806C31.4344 58.0716 33.044 57.8883 34.5325 57.5306C38.7661 56.5134 41.1972 53.348 42.5091 49.3707C43.4383 46.5544 43.9138 43.6553 44.1792 40.7268C44.4041 38.2432 44.5188 35.7546 44.5233 33.261C44.5334 27.4853 44.396 22.4029 43.4626 17.0576C43.003 14.4288 42.2604 11.7599 40.9837 9.38985C39.3535 6.36435 36.8534 4.47458 33.4835 3.72057C32.0202 3.39295 30.6606 3.22106 29.4049 3.20487C27.0072 3.17361 24.6129 3.16747 22.2219 3.18645C22.2121 3.18645 22.2028 3.19033 22.1958 3.19724C22.1889 3.20414 22.1851 3.21352 22.1851 3.22329C22.1851 21.4256 22.1851 39.6285 22.1851 57.8319C22.1851 57.8476 22.1915 57.8807 22.2043 57.9315C22.2138 57.9712 22.2032 58.0049 22.1726 58.0329C22.1666 58.0382 22.1625 58.0451 22.1605 58.0528C22.1587 58.0606 22.1592 58.0686 22.1619 58.076C22.1648 58.0835 22.1698 58.0899 22.1763 58.0945C22.1828 58.099 22.1905 58.1015 22.1985 58.1015Z" fill="#5F5F5F"/>
<path d="M137.158 4.3391C137.111 4.22022 137.087 4.22468 137.087 4.35249V58.0687C137.087 58.0899 137.098 58.1005 137.119 58.1005L146.589 58.0997C146.659 58.0997 146.693 58.1346 146.693 58.2043V59.5203C146.693 59.5432 146.684 59.5652 146.668 59.5813C146.652 59.5975 146.63 59.6066 146.607 59.6066H125.827C125.815 59.6066 125.805 59.6022 125.798 59.5943C125.79 59.5865 125.785 59.5758 125.785 59.5647V58.2069C125.785 58.1354 125.821 58.0997 125.892 58.0997H135.245C135.273 58.0997 135.287 58.0857 135.287 58.0578V3.265C135.287 3.2428 135.278 3.22151 135.262 3.20581C135.246 3.19011 135.225 3.18129 135.203 3.18129H125.827C125.798 3.18129 125.785 3.16734 125.785 3.13943V1.74973C125.785 1.73529 125.79 1.72145 125.801 1.71125C125.812 1.70105 125.826 1.69531 125.84 1.69531H150.168C150.182 1.69529 150.195 1.69937 150.206 1.70699C150.217 1.7146 150.225 1.72542 150.23 1.73801L165.108 39.656C165.111 39.6621 165.115 39.6673 165.121 39.6708C165.127 39.6744 165.133 39.6762 165.14 39.6759C165.146 39.6756 165.153 39.6733 165.159 39.6693C165.164 39.6653 165.167 39.6598 165.169 39.6535L176.424 1.79493C176.433 1.7662 176.451 1.74098 176.475 1.72302C176.498 1.70506 176.528 1.69535 176.558 1.69531H199.916C199.933 1.69531 199.949 1.70192 199.96 1.7137C199.973 1.72548 199.979 1.74145 199.979 1.7581V3.12604C199.979 3.14069 199.974 3.15475 199.963 3.16511C199.952 3.17547 199.938 3.18129 199.924 3.18129H190.56C190.537 3.18129 190.516 3.1902 190.5 3.20606C190.484 3.22191 190.475 3.24342 190.475 3.26584L190.481 58.0603C190.481 58.0877 190.494 58.1014 190.521 58.1014L199.916 58.0988C199.933 58.0988 199.949 58.1055 199.96 58.1175C199.973 58.1294 199.979 58.1456 199.979 58.1624V59.5438C199.979 59.5604 199.973 59.5764 199.96 59.5882C199.949 59.6 199.933 59.6066 199.916 59.6066H168.383C168.365 59.6066 168.346 59.5991 168.333 59.5857C168.32 59.5723 168.313 59.5543 168.313 59.5354L168.313 58.1992C168.313 58.1329 168.346 58.0997 168.413 58.0997H177.773C177.784 58.0997 177.795 58.0953 177.803 58.0874C177.811 58.0795 177.815 58.0689 177.815 58.0578V4.52914C177.815 4.50864 177.819 4.48823 177.826 4.46886C177.845 4.41751 177.847 4.37091 177.832 4.32905C177.829 4.32214 177.824 4.31624 177.818 4.31218C177.812 4.30811 177.805 4.30608 177.797 4.30636C177.79 4.30663 177.782 4.3092 177.776 4.31371C177.771 4.31823 177.767 4.32446 177.764 4.33156L160.574 61.9297C160.559 61.9782 160.53 62.0209 160.49 62.0521C160.451 62.0831 160.402 62.1011 160.352 62.1034C160.301 62.1057 160.251 62.0923 160.208 62.0649C160.166 62.0375 160.133 61.9976 160.114 61.9507L137.158 4.3391Z" fill="#5F5F5F"/>
<path d="M20.7023 68.6747C20.7045 69.9271 20.1768 71.1292 19.2352 72.0164C18.2937 72.9038 17.0154 73.4035 15.6817 73.4059C15.0213 73.4071 14.3671 73.286 13.7566 73.0497C13.146 72.8135 12.5911 72.4666 12.1233 72.0289C11.6556 71.5912 11.2843 71.0712 11.0306 70.4987C10.7768 69.9262 10.6457 69.3124 10.6445 68.6922C10.6424 67.4397 11.1701 66.2376 12.1116 65.3503C13.0532 64.4631 14.3314 63.9632 15.6652 63.9609C16.3256 63.9598 16.9798 64.0808 17.5903 64.3171C18.2008 64.5533 18.7558 64.9002 19.2236 65.3379C19.6913 65.7756 20.0626 66.2956 20.3164 66.8681C20.5701 67.4406 20.7013 68.0545 20.7023 68.6747ZM17.2842 69.292L16.3014 68.2924C16.2922 68.2832 16.2854 68.2719 16.2817 68.2595C16.2779 68.2471 16.2771 68.234 16.2795 68.2212C16.2819 68.2085 16.2874 68.1964 16.2953 68.1863C16.3034 68.1761 16.3137 68.168 16.3256 68.1627C16.8204 67.9383 17.2983 67.544 17.3989 66.9739C17.6375 65.6227 16.0602 65.2083 15.0698 65.4444C13.7647 65.7558 13.5144 67.1137 14.4671 67.9927C14.4748 68 14.4807 68.0089 14.4844 68.0188C14.4881 68.0287 14.4894 68.0394 14.4882 68.0499C14.4869 68.0603 14.4832 68.0703 14.4774 68.079C14.4715 68.0877 14.4637 68.0948 14.4545 68.0999C13.6617 68.5352 12.7249 69.0936 13.0254 70.1903C13.321 71.2711 14.4964 71.6252 15.5278 71.4377C16.0987 71.3344 16.5957 71.1148 17.0188 70.7788C17.0466 70.7569 17.0816 70.7462 17.117 70.7487C17.1523 70.7514 17.1854 70.7672 17.2097 70.7931L17.7169 71.3297C17.7283 71.3416 17.7419 71.351 17.7569 71.3576C17.7719 71.364 17.7879 71.3674 17.804 71.3674H19.2532C19.2606 71.3674 19.268 71.3653 19.2743 71.3611C19.2806 71.357 19.2854 71.351 19.2883 71.3441C19.2912 71.3372 19.2919 71.3296 19.2904 71.3223C19.289 71.3149 19.2853 71.3082 19.2799 71.3029L18.0552 70.0639C18.0503 70.0588 18.0464 70.0528 18.0438 70.0463C18.0412 70.0398 18.0398 70.0328 18.0399 70.0258C18.04 70.0188 18.0415 70.0119 18.0443 70.0056C18.047 69.9991 18.051 69.9933 18.056 69.9886L18.8137 69.2502C18.8217 69.2423 18.828 69.2329 18.8322 69.2225C18.8365 69.2121 18.8386 69.2009 18.8383 69.1898C18.8381 69.1786 18.8356 69.1675 18.8309 69.1573C18.8262 69.1471 18.8195 69.1379 18.8112 69.1304L18.1582 68.5453C18.1398 68.5291 18.1219 68.5296 18.1045 68.547L17.3604 69.292C17.3346 69.3177 17.3092 69.3177 17.2842 69.292Z" fill="#5F5F5F"/>
<path d="M39.7242 66.3445C39.7239 66.3394 39.7221 66.3345 39.7189 66.3305C39.7158 66.3265 39.7114 66.3236 39.7065 66.3222C39.7016 66.3208 39.6964 66.321 39.6915 66.3228C39.6867 66.3245 39.6827 66.3277 39.6797 66.332C38.6081 68.1235 37.5382 69.9134 36.47 71.7016C36.3059 71.9761 36.3704 72.4977 36.3788 72.8142C36.379 72.8247 36.3834 72.8347 36.3909 72.842C36.3984 72.8494 36.4085 72.8535 36.4189 72.8535H37.7358C37.7637 72.8535 37.7777 72.8674 37.7777 72.8954V73.0101C37.7777 73.0452 37.7601 73.0628 37.725 73.0628H33.0151C32.9793 73.0628 32.9592 73.0452 32.9548 73.0101L32.9439 72.9247C32.9427 72.9159 32.9435 72.9068 32.946 72.8983C32.9487 72.8897 32.9531 72.8819 32.959 72.8751C32.965 72.8684 32.9723 72.8629 32.9805 72.8592C32.9887 72.8555 32.9976 72.8535 33.0066 72.8535H34.3855C34.392 72.8535 34.3981 72.851 34.4027 72.8464C34.4072 72.8419 34.4097 72.8357 34.4097 72.8292L34.4089 64.9482C34.4089 64.933 34.4028 64.9185 34.392 64.9079C34.3812 64.8972 34.3665 64.8912 34.3512 64.8912L33.0535 64.9046C33.0275 64.9049 33.0022 64.8958 32.9822 64.8789C32.9622 64.862 32.9489 64.8384 32.9447 64.8125C32.9374 64.7656 32.9473 64.728 32.974 64.6995C32.9919 64.6805 33.0201 64.671 33.0586 64.671C34.5967 64.6699 36.1312 64.6697 37.6622 64.6702C37.7358 64.6702 37.7746 64.707 37.7786 64.7807C37.7827 64.8644 37.7258 64.9046 37.6454 64.9029C37.2403 64.894 36.8348 64.8948 36.429 64.9054C36.3933 64.9059 36.3754 64.9241 36.3754 64.9598V71.242C36.3752 71.249 36.3774 71.256 36.3816 71.2618C36.3858 71.2675 36.3918 71.2717 36.3986 71.2736C36.4055 71.2755 36.4128 71.2751 36.4193 71.2724C36.4258 71.2697 36.4313 71.2649 36.4349 71.2587L39.7032 65.7878C39.7172 65.7638 39.7242 65.7382 39.7242 65.7108V64.9498C39.7242 64.9349 39.7182 64.9206 39.7077 64.9101C39.6972 64.8996 39.6829 64.8937 39.6681 64.8937L38.3897 64.9029C38.3782 64.9031 38.367 64.8998 38.3574 64.8936C38.3479 64.8874 38.3404 64.8783 38.3361 64.8677C38.3015 64.7823 38.3098 64.724 38.3612 64.6928C38.3858 64.6782 38.4302 64.671 38.4943 64.671C40.0313 64.6699 41.5684 64.6697 43.1055 64.6702C43.1131 64.6702 43.1206 64.6719 43.1276 64.6751C43.1345 64.6783 43.1407 64.6829 43.1458 64.6888C43.1507 64.6945 43.1544 64.7013 43.1566 64.7087C43.1587 64.716 43.1593 64.7237 43.1582 64.7312L43.1397 64.8519C43.1353 64.8842 43.1166 64.9004 43.0837 64.9004H41.7342C41.7233 64.9004 41.7128 64.9047 41.7051 64.9124C41.6974 64.9201 41.6932 64.9305 41.6932 64.9414L41.6722 72.7999C41.6722 72.8357 41.6904 72.8535 41.7266 72.8535H43.1147C43.1258 72.8535 43.1364 72.8579 43.1443 72.8658C43.1521 72.8736 43.1566 72.8843 43.1566 72.8954V73.021C43.1566 73.0489 43.1426 73.0628 43.1147 73.0628H38.383C38.3523 73.0628 38.3333 73.048 38.326 73.0184L38.3018 72.9238C38.2997 72.9155 38.2997 72.9067 38.3015 72.8983C38.3033 72.8899 38.307 72.8821 38.3123 72.8752C38.3176 72.8685 38.3244 72.863 38.3322 72.8592C38.3399 72.8555 38.3484 72.8535 38.357 72.8535H39.6404C39.6626 72.8535 39.6839 72.8447 39.6996 72.829C39.7153 72.8133 39.7242 72.792 39.7242 72.7698V66.3445Z" fill="#5F5F5F"/>
<path d="M62.5859 64.9026L61.4816 64.901C61.4561 64.901 61.4316 64.8908 61.4136 64.8727C61.3955 64.8547 61.3853 64.8302 61.3853 64.8047V64.7619C61.3853 64.7373 61.3952 64.7137 61.4126 64.6963C61.43 64.6788 61.4537 64.669 61.4784 64.669L65.9839 64.6816C66.0052 64.6817 66.0256 64.6892 66.0418 64.7027C66.0581 64.7164 66.069 64.7353 66.0727 64.7561C66.0877 64.841 66.0443 64.8842 65.9421 64.8858C65.5291 64.8925 65.1303 64.8898 64.7458 64.8775C64.7254 64.8768 64.705 64.8802 64.686 64.8876C64.6669 64.8948 64.6495 64.9059 64.6348 64.9201C64.6201 64.9342 64.6084 64.9511 64.6005 64.9698C64.5925 64.9886 64.5884 65.0087 64.5884 65.029L64.5868 72.813C64.5868 72.8241 64.5912 72.8348 64.5992 72.8426C64.6072 72.8505 64.6181 72.8548 64.6294 72.8548H66.0216C66.0562 72.8548 66.0736 72.8725 66.0736 72.9076V73.0039C66.0736 73.0118 66.072 73.0196 66.069 73.027C66.066 73.0343 66.0615 73.041 66.0559 73.0465C66.0503 73.0521 66.0437 73.0565 66.0363 73.0596C66.0291 73.0626 66.0212 73.0641 66.0133 73.0641C64.5108 73.0641 63.0084 73.0641 61.506 73.0641C61.4552 73.0641 61.4203 73.053 61.4013 73.0307C61.3778 73.0039 61.3661 72.9643 61.3661 72.9118C61.3663 72.8966 61.3724 72.8822 61.3831 72.8715C61.3938 72.8609 61.4081 72.8548 61.423 72.8548H62.5558C62.5789 72.8548 62.601 72.8457 62.6173 72.8294C62.6337 72.8131 62.6428 72.791 62.6428 72.7679L62.6403 68.7745C62.6403 68.7636 62.6361 68.7532 62.6285 68.7455C62.621 68.7379 62.6107 68.7335 62.6001 68.7335L59.7001 68.7277C59.6092 68.7277 59.564 68.7728 59.5646 68.8633L59.5653 72.813C59.5653 72.841 59.5793 72.8548 59.6072 72.8548H60.7918C60.7987 72.8548 60.8054 72.8564 60.8116 72.8593C60.8178 72.8622 60.8232 72.8664 60.8276 72.8718C60.8319 72.8771 60.835 72.8833 60.8367 72.8899C60.8383 72.8965 60.8384 72.9034 60.837 72.9102L60.8145 73.0282C60.8094 73.0522 60.7949 73.0641 60.7709 73.0641H56.184C56.1528 73.0641 56.1372 73.0483 56.1372 73.0164V72.9017C56.1372 72.8705 56.1528 72.8548 56.184 72.8548H57.5193C57.5431 72.8548 57.5659 72.8455 57.5827 72.8287C57.5995 72.8118 57.6089 72.7891 57.6089 72.7653L57.6215 64.9896C57.6215 64.9664 57.6122 64.944 57.5957 64.9275C57.5792 64.911 57.5569 64.9017 57.5336 64.9017H56.22C56.1777 64.9017 56.1559 64.8806 56.1547 64.8381L56.1522 64.7234C56.1517 64.6894 56.1684 64.6724 56.2024 64.6724C57.1552 64.6707 58.1073 64.6707 59.0589 64.6724C59.4816 64.674 60.1438 64.7092 60.6972 64.6607C60.723 64.6584 60.7488 64.6636 60.7716 64.6756C60.7945 64.6877 60.8134 64.706 60.8261 64.7285C60.8602 64.7882 60.853 64.8356 60.8044 64.8708C60.7792 64.8898 60.7419 64.8993 60.6922 64.8993C60.3361 64.902 60.0027 64.9029 59.6918 64.9017C59.6081 64.9012 59.5662 64.9428 59.5662 65.0265L59.5637 68.4589C59.5637 68.4757 59.5704 68.4919 59.5823 68.5039C59.5943 68.5158 59.6105 68.5225 59.6273 68.5225H62.5993C62.6106 68.5225 62.6215 68.518 62.6295 68.51C62.6375 68.502 62.642 68.4911 62.642 68.4798L62.6403 64.9571C62.6403 64.9425 62.6346 64.9287 62.6244 64.9186C62.6142 64.9083 62.6003 64.9026 62.5859 64.9026Z" fill="#5F5F5F"/>
<path d="M87.5393 67.6205C87.3593 65.9528 86.0282 64.8427 84.3513 64.913C84.3196 64.9141 84.3036 64.9309 84.3036 64.9632V72.8134C84.3036 72.8245 84.3081 72.8352 84.3159 72.843C84.3237 72.8508 84.3344 72.8552 84.3455 72.8552H85.8357C85.8686 72.8552 85.892 72.87 85.906 72.8997C85.9283 72.9498 85.9186 72.9978 85.8767 73.0437C85.8639 73.0575 85.8477 73.0645 85.8281 73.0645H80.7791C80.7496 73.0645 80.7336 73.0498 80.7314 73.0202L80.7231 72.9105C80.7203 72.8736 80.7373 72.8552 80.7742 72.8552H82.2526C82.2748 72.8552 82.2961 72.8464 82.3118 72.8307C82.3274 72.8151 82.3363 72.7937 82.3363 72.7715V64.9624C82.3363 64.9441 82.3291 64.9266 82.3162 64.9136C82.3034 64.9005 82.2859 64.8931 82.2676 64.8929C80.6452 64.8594 79.2681 65.9436 79.1166 67.6062C79.1127 67.6447 79.0914 67.6639 79.0529 67.6639H78.9005C78.8676 67.6639 78.852 67.6475 78.8536 67.6145L78.9893 64.7531C78.9904 64.7312 78.9997 64.7106 79.0155 64.6954C79.0312 64.6803 79.0521 64.6719 79.0738 64.6719H87.5712C87.5942 64.6719 87.6164 64.6807 87.633 64.6967C87.6497 64.7126 87.6597 64.7343 87.6607 64.7573L87.7897 67.6154C87.7913 67.6483 87.7757 67.6648 87.7428 67.6648H87.5887C87.5586 67.6648 87.5421 67.65 87.5393 67.6205Z" fill="#5F5F5F"/>
<path d="M101.945 64.8837C101.549 64.9005 101.133 64.9066 100.699 64.9021C100.658 64.9016 100.628 64.8915 100.608 64.872C100.581 64.8458 100.57 64.8129 100.576 64.7732C100.579 64.7452 100.593 64.7194 100.614 64.7008C100.636 64.6821 100.663 64.6719 100.691 64.6719H108.079C108.091 64.6719 108.101 64.6763 108.109 64.6842C108.116 64.6921 108.121 64.7027 108.121 64.7137V67.2303C108.121 67.2605 108.107 67.2828 108.081 67.2973L108.032 67.3232C108.018 67.3309 108.001 67.335 107.985 67.3351C107.968 67.3351 107.952 67.3312 107.937 67.3237C107.922 67.3161 107.91 67.3051 107.9 67.2916C107.891 67.2782 107.884 67.2626 107.883 67.2462C107.703 65.9614 107.014 65.2015 105.816 64.9666C105.317 64.8686 104.671 64.8971 104.119 64.9038C104.087 64.9043 104.057 64.9172 104.035 64.9399C104.012 64.9627 103.999 64.9933 103.999 65.0251L104.001 68.5874C104.001 68.5966 104.005 68.6053 104.011 68.612C104.018 68.6185 104.026 68.6223 104.036 68.6225C105.009 68.661 105.932 68.0675 105.983 67.0311C105.984 67.0152 105.989 66.9998 105.999 66.9873C106.008 66.9746 106.022 66.9654 106.037 66.9607C106.102 66.9401 106.153 66.9431 106.192 66.9699C106.222 66.9905 106.237 67.0305 106.237 67.0897C106.237 68.2092 106.237 69.3299 106.237 70.4517C106.237 70.4695 106.233 70.487 106.225 70.5029C106.218 70.5189 106.207 70.5328 106.192 70.5438C106.122 70.5966 106.03 70.5681 105.997 70.486C105.949 70.368 105.973 70.2407 105.942 70.1328C105.706 69.2847 104.898 68.8184 104.047 68.8494C104.034 68.8498 104.022 68.8553 104.014 68.8647C104.004 68.8741 103.999 68.8867 103.999 68.8996L104.023 72.8109C104.023 72.8327 104.035 72.8438 104.057 72.8444C104.862 72.8728 105.434 72.8614 105.77 72.81C107.388 72.5617 108.277 71.6235 108.44 69.9955C108.444 69.9631 108.46 69.9469 108.492 69.9469H108.63C108.645 69.9469 108.659 69.9529 108.669 69.9636C108.68 69.9743 108.686 69.9888 108.686 70.0038V73.0227C108.686 73.0505 108.672 73.0645 108.645 73.0645H100.639C100.604 73.0645 100.586 73.0469 100.586 73.0118V72.8971C100.586 72.8692 100.6 72.8552 100.629 72.8552H101.997C102.004 72.8552 102.011 72.8538 102.018 72.8511C102.024 72.8482 102.03 72.8442 102.036 72.839C102.041 72.8339 102.045 72.8278 102.047 72.8212C102.05 72.8144 102.052 72.8073 102.052 72.8V64.9859C102.052 64.9721 102.049 64.9584 102.044 64.9458C102.037 64.9331 102.03 64.9216 102.02 64.9121C102.01 64.9026 101.998 64.8952 101.985 64.8903C101.972 64.8853 101.958 64.8831 101.945 64.8837Z" fill="#5F5F5F"/>
<path d="M125.139 69.7022C125.134 69.7009 125.128 69.7009 125.122 69.702C125.117 69.7032 125.112 69.7055 125.108 69.709C125.104 69.7124 125.1 69.7167 125.098 69.7216C125.096 69.7265 125.094 69.7319 125.095 69.7373V72.8131C125.095 72.8242 125.098 72.8348 125.106 72.8427C125.114 72.8506 125.125 72.8549 125.136 72.8549H126.653C126.691 72.8549 126.707 72.8739 126.7 72.9119L126.682 73.0182C126.676 73.0489 126.658 73.0642 126.627 73.0642H121.766C121.744 73.0643 121.723 73.0576 121.705 73.0449C121.687 73.0324 121.674 73.0146 121.666 72.994C121.648 72.9425 121.652 72.9043 121.681 72.8793C121.698 72.8631 121.729 72.8549 121.774 72.8549C122.197 72.8549 122.62 72.8549 123.043 72.8549C123.065 72.8549 123.086 72.8461 123.102 72.8302C123.117 72.8143 123.126 72.7928 123.126 72.7704L123.127 64.9696C123.127 64.9593 123.125 64.9492 123.121 64.9397C123.117 64.9301 123.112 64.9216 123.104 64.9143C123.097 64.907 123.088 64.9013 123.078 64.8975C123.069 64.8936 123.059 64.8916 123.048 64.8918L121.773 64.906C121.752 64.9062 121.733 64.9003 121.716 64.8889C121.699 64.8775 121.687 64.8613 121.68 64.8424C121.654 64.7738 121.66 64.7252 121.697 64.6967C121.716 64.6806 121.754 64.6724 121.81 64.6724C123.233 64.6713 124.655 64.6719 126.078 64.6741C127.823 64.6775 130.138 65.3363 129.889 67.58C129.654 69.6938 126.746 70.0731 125.139 69.7022ZM125.126 69.4854C126.138 69.7876 127.467 69.6235 127.717 68.3903C127.889 67.5415 127.928 66.0814 127.343 65.3949C126.81 64.7679 125.889 64.8935 125.135 64.9035C125.107 64.9035 125.094 64.9172 125.094 64.9446L125.095 69.4452C125.095 69.4543 125.097 69.4632 125.103 69.4705C125.109 69.4778 125.117 69.483 125.126 69.4854Z" fill="#5F5F5F"/>
<path d="M144.29 64.9021H142.951C142.921 64.9021 142.906 64.8876 142.902 64.8586L142.887 64.7238C142.883 64.6892 142.898 64.6719 142.933 64.6719H147.752C147.759 64.6719 147.767 64.6736 147.774 64.6767C147.78 64.68 147.786 64.6846 147.791 64.6905C147.796 64.6963 147.799 64.7031 147.801 64.7105C147.804 64.7178 147.804 64.7255 147.803 64.733L147.782 64.8544C147.776 64.8862 147.757 64.9021 147.725 64.9021H146.359C146.347 64.9021 146.336 64.9066 146.329 64.9144C146.321 64.9222 146.317 64.9329 146.317 64.944V68.2944C146.317 68.3008 146.318 68.3073 146.321 68.3132C146.324 68.319 146.328 68.3243 146.333 68.3283C146.338 68.3324 146.344 68.3353 146.351 68.3368C146.357 68.3383 146.364 68.3384 146.37 68.337C147.652 68.0633 149.112 68.157 150.167 68.9624C151.06 69.6447 151.481 70.8946 150.787 71.8431C149.99 72.9348 148.483 73.0553 147.227 73.0604C145.799 73.067 144.371 73.0676 142.942 73.0621C142.904 73.0621 142.884 73.0428 142.884 73.0043V72.9038C142.884 72.8698 142.901 72.8528 142.936 72.8528L144.292 72.8561C144.302 72.8562 144.311 72.8544 144.32 72.8511C144.328 72.8476 144.336 72.8425 144.342 72.836C144.349 72.8296 144.354 72.8219 144.358 72.8134C144.361 72.8049 144.363 72.7958 144.363 72.7866L144.352 64.9599C144.352 64.9445 144.345 64.9298 144.334 64.919C144.322 64.9083 144.307 64.9021 144.29 64.9021ZM148.8 69.4572C148.512 68.3036 147.346 68.2968 146.416 68.5371C146.35 68.5544 146.317 68.5977 146.317 68.6669V72.7933C146.317 72.8267 146.333 72.8444 146.366 72.846C147.321 72.9013 148.616 73.0486 148.857 71.7728C149.006 70.9769 148.988 70.2051 148.8 69.4572Z" fill="#5F5F5F"/>
<path d="M170.394 65.2948C169.589 64.8218 168.661 64.8862 167.766 64.9038C167.744 64.9043 167.724 64.9131 167.709 64.9284C167.694 64.9437 167.686 64.9644 167.686 64.9859V68.5413C167.686 68.5644 167.695 68.5867 167.711 68.6032C167.727 68.6197 167.75 68.629 167.773 68.6292C168.728 68.6401 169.624 68.0658 169.669 67.0143C169.671 66.9791 169.689 66.9607 169.724 66.959L169.871 66.9515C169.907 66.9493 169.925 66.9666 169.925 67.0035V70.4718C169.925 70.4982 169.914 70.5236 169.897 70.5426C169.878 70.5615 169.852 70.5725 169.826 70.5731C169.777 70.5743 169.739 70.5614 169.712 70.5346C169.693 70.5157 169.681 70.4794 169.675 70.4258C169.581 69.4069 168.705 68.8134 167.732 68.8468C167.719 68.8473 167.706 68.8529 167.697 68.8624C167.688 68.872 167.683 68.8847 167.683 68.898L167.711 72.816C167.711 72.8304 167.718 72.8382 167.733 72.8393C169.927 72.9641 171.857 72.5572 172.136 70.0055C172.141 69.9659 172.163 69.9461 172.203 69.9461H172.321C172.356 69.9461 172.373 69.9636 172.373 69.9989V73.0227C172.373 73.0338 172.369 73.0444 172.361 73.0523C172.353 73.0601 172.343 73.0645 172.332 73.0645H164.326C164.291 73.0645 164.271 73.0473 164.266 73.0127L164.25 72.9063C164.249 72.9003 164.249 72.8941 164.25 72.8882C164.252 72.8822 164.256 72.8767 164.259 72.8721C164.264 72.8674 164.269 72.8636 164.274 72.861C164.28 72.8583 164.286 72.857 164.292 72.8569L165.676 72.8519C165.715 72.8513 165.735 72.8318 165.735 72.7933L165.741 64.9875C165.741 64.9745 165.738 64.9616 165.734 64.9497C165.728 64.9376 165.721 64.9267 165.712 64.9177C165.703 64.9086 165.691 64.9015 165.679 64.8968C165.667 64.8921 165.654 64.8899 165.641 64.8904C165.243 64.9038 164.819 64.8745 164.414 64.9121C164.316 64.9211 164.266 64.8753 164.265 64.7749C164.265 64.7614 164.267 64.748 164.273 64.7355C164.277 64.723 164.285 64.7117 164.294 64.7021C164.304 64.6926 164.315 64.685 164.327 64.6798C164.34 64.6746 164.353 64.6719 164.366 64.6719H171.767C171.796 64.6719 171.81 64.6861 171.81 64.7146L171.808 67.2889C171.808 67.3162 171.794 67.3299 171.766 67.3299H171.622C171.605 67.3299 171.59 67.3239 171.578 67.313C171.566 67.3021 171.559 67.2873 171.558 67.2713C171.493 66.4534 171.108 65.7151 170.394 65.2948Z" fill="#5F5F5F"/>
<path d="M186.835 72.7902L186.836 64.9861C186.836 64.9303 186.807 64.9024 186.752 64.9024H185.428C185.414 64.9024 185.401 64.8976 185.391 64.8889C185.38 64.8801 185.373 64.868 185.37 64.8546L185.349 64.729C185.343 64.6934 185.358 64.6752 185.395 64.6746C186.922 64.6702 188.448 64.668 189.975 64.668C191.464 64.6688 193.335 65.259 193.584 66.9903C193.65 67.4529 193.575 67.8921 193.358 68.308C192.581 69.7989 190.307 70.0116 188.859 69.7169C188.849 69.715 188.839 69.7153 188.83 69.7176C188.821 69.7198 188.813 69.7242 188.806 69.7302C188.798 69.7362 188.792 69.7438 188.788 69.7523C188.784 69.7609 188.782 69.7703 188.782 69.7797V72.8027C188.782 72.8379 188.799 72.8555 188.834 72.8555H190.351C190.388 72.8555 190.406 72.8742 190.402 72.9116L190.391 73.0162C190.388 73.0486 190.37 73.0648 190.337 73.0648H185.402C185.368 73.0648 185.35 73.0472 185.35 73.012V72.9082C185.35 72.873 185.367 72.8555 185.401 72.8555H186.77C186.787 72.8555 186.804 72.8486 186.816 72.8364C186.828 72.8241 186.835 72.8075 186.835 72.7902ZM188.876 69.5076C189.378 69.6377 189.861 69.6441 190.326 69.5269C191.368 69.2632 191.494 68.3473 191.517 67.3996C191.542 66.4185 191.371 65.0857 190.141 64.9258C189.799 64.8817 189.364 64.8758 188.834 64.9082C188.799 64.9099 188.782 64.9283 188.782 64.9635V69.3846C188.782 69.4498 188.814 69.4909 188.876 69.5076Z" fill="#5F5F5F"/>
<path d="M15.6032 67.5665C15.3328 67.3187 14.9309 66.8893 15.1393 66.5058C15.6232 65.6168 17.2809 66.7377 15.6743 67.5757C15.6628 67.5816 15.6497 67.5839 15.637 67.5823C15.6243 67.5806 15.6124 67.5751 15.6032 67.5665Z" fill="#5F5F5F"/>
<path d="M16.3408 70.0426C14.8874 71.2641 13.1737 69.6157 15.1219 68.7425C15.1394 68.7347 15.1588 68.7324 15.1775 68.7361C15.1963 68.7396 15.2134 68.7489 15.2265 68.7626L16.3475 69.9238C16.3552 69.9318 16.3612 69.9413 16.365 69.9517C16.3689 69.9622 16.3705 69.9732 16.3699 69.9844C16.3693 69.9955 16.3664 70.0065 16.3613 70.0165C16.3564 70.0265 16.3493 70.0354 16.3408 70.0426Z" fill="#5F5F5F"/>
</svg>
